<?xml version="1.0" encoding="UTF-8" standalone="no"?>
<!-- Created with Inkscape (http://www.inkscape.org/) -->
<svg xmlns:dc="http://purl.org/dc/elements/1.1/" xmlns:cc="http://creativecommons.org/ns#" xmlns:rdf="http://www.w3.org/1999/02/22-rdf-syntax-ns#" xmlns:svg="http://www.w3.org/2000/svg" xmlns="http://www.w3.org/2000/svg" xmlns:sodipodi="http://sodipodi.sourceforge.net/DTD/sodipodi-0.dtd" xmlns:inkscape="http://www.inkscape.org/namespaces/inkscape" width="150" height="70" id="svg6359" sodipodi:version="0.32" inkscape:version="0.46" version="1.0" sodipodi:docname="Xiangqi Cannon (Trad).svg" inkscape:output_extension="org.inkscape.output.svg.inkscape">
  <defs id="defs6361">
    <inkscape:perspective sodipodi:type="inkscape:persp3d" inkscape:vp_x="0 : 526.18109 : 1" inkscape:vp_y="0 : 1000 : 0" inkscape:vp_z="744.09448 : 526.18109 : 1" inkscape:persp3d-origin="372.04724 : 350.78739 : 1" id="perspective6367"/>
    <inkscape:perspective sodipodi:type="inkscape:persp3d" inkscape:vp_x="0 : 32 : 1" inkscape:vp_y="0 : 1000 : 0" inkscape:vp_z="64 : 32 : 1" inkscape:persp3d-origin="32 : 21.333333 : 1" id="perspective5533"/>
    <inkscape:perspective sodipodi:type="inkscape:persp3d" inkscape:vp_x="0 : 50 : 1" inkscape:vp_y="0 : 1000 : 0" inkscape:vp_z="100 : 50 : 1" inkscape:persp3d-origin="50 : 33.333333 : 1" id="perspective3275"/>
    <inkscape:perspective sodipodi:type="inkscape:persp3d" inkscape:vp_x="0 : 60 : 1" inkscape:vp_y="0 : 1000 : 0" inkscape:vp_z="150 : 60 : 1" inkscape:persp3d-origin="75 : 40 : 1" id="perspective2777"/>
    <inkscape:perspective sodipodi:type="inkscape:persp3d" inkscape:vp_x="0 : 526.18109 : 1" inkscape:vp_y="0 : 1000 : 0" inkscape:vp_z="744.09448 : 526.18109 : 1" inkscape:persp3d-origin="372.04724 : 350.78739 : 1" id="perspective2819"/>
    <inkscape:perspective id="perspective2806" inkscape:persp3d-origin="0.5 : 0.33333333 : 1" inkscape:vp_z="1 : 0.5 : 1" inkscape:vp_y="0 : 1000 : 0" inkscape:vp_x="0 : 0.5 : 1" sodipodi:type="inkscape:persp3d"/>
    <inkscape:perspective id="perspective2714" inkscape:persp3d-origin="25 : 10 : 1" inkscape:vp_z="50 : 15 : 1" inkscape:vp_y="0 : 1000 : 0" inkscape:vp_x="0 : 15 : 1" sodipodi:type="inkscape:persp3d"/>
    <inkscape:perspective sodipodi:type="inkscape:persp3d" inkscape:vp_x="0 : 32 : 1" inkscape:vp_y="0 : 1000 : 0" inkscape:vp_z="64 : 32 : 1" inkscape:persp3d-origin="32 : 21.333333 : 1" id="perspective6738"/>
    <inkscape:perspective sodipodi:type="inkscape:persp3d" inkscape:vp_x="0 : 50 : 1" inkscape:vp_y="0 : 1000 : 0" inkscape:vp_z="100 : 50 : 1" inkscape:persp3d-origin="50 : 33.333333 : 1" id="perspective6736"/>
    <inkscape:perspective sodipodi:type="inkscape:persp3d" inkscape:vp_x="0 : 60 : 1" inkscape:vp_y="0 : 1000 : 0" inkscape:vp_z="150 : 60 : 1" inkscape:persp3d-origin="75 : 40 : 1" id="perspective6734"/>
    <inkscape:perspective sodipodi:type="inkscape:persp3d" inkscape:vp_x="0 : 526.18109 : 1" inkscape:vp_y="0 : 1000 : 0" inkscape:vp_z="744.09448 : 526.18109 : 1" inkscape:persp3d-origin="372.04724 : 350.78739 : 1" id="perspective6732"/>
    <inkscape:perspective id="perspective6730" inkscape:persp3d-origin="0.5 : 0.33333333 : 1" inkscape:vp_z="1 : 0.5 : 1" inkscape:vp_y="0 : 1000 : 0" inkscape:vp_x="0 : 0.5 : 1" sodipodi:type="inkscape:persp3d"/>
    <inkscape:perspective id="perspective6728" inkscape:persp3d-origin="25 : 10 : 1" inkscape:vp_z="50 : 15 : 1" inkscape:vp_y="0 : 1000 : 0" inkscape:vp_x="0 : 15 : 1" sodipodi:type="inkscape:persp3d"/>
    <inkscape:perspective sodipodi:type="inkscape:persp3d" inkscape:vp_x="0 : 25 : 1" inkscape:vp_y="0 : 1000 : 0" inkscape:vp_z="50 : 25 : 1" inkscape:persp3d-origin="25 : 16.666667 : 1" id="perspective2557"/>
    <inkscape:perspective sodipodi:type="inkscape:persp3d" inkscape:vp_x="0 : 32 : 1" inkscape:vp_y="0 : 1000 : 0" inkscape:vp_z="64 : 32 : 1" inkscape:persp3d-origin="32 : 21.333333 : 1" id="perspective6846"/>
    <inkscape:perspective sodipodi:type="inkscape:persp3d" inkscape:vp_x="0 : 50 : 1" inkscape:vp_y="0 : 1000 : 0" inkscape:vp_z="100 : 50 : 1" inkscape:persp3d-origin="50 : 33.333333 : 1" id="perspective6844"/>
    <inkscape:perspective sodipodi:type="inkscape:persp3d" inkscape:vp_x="0 : 60 : 1" inkscape:vp_y="0 : 1000 : 0" inkscape:vp_z="150 : 60 : 1" inkscape:persp3d-origin="75 : 40 : 1" id="perspective6842"/>
    <inkscape:perspective sodipodi:type="inkscape:persp3d" inkscape:vp_x="0 : 526.18109 : 1" inkscape:vp_y="0 : 1000 : 0" inkscape:vp_z="744.09448 : 526.18109 : 1" inkscape:persp3d-origin="372.04724 : 350.78739 : 1" id="perspective6840"/>
    <inkscape:perspective id="perspective6838" inkscape:persp3d-origin="0.5 : 0.33333333 : 1" inkscape:vp_z="1 : 0.5 : 1" inkscape:vp_y="0 : 1000 : 0" inkscape:vp_x="0 : 0.5 : 1" sodipodi:type="inkscape:persp3d"/>
    <inkscape:perspective id="perspective6836" inkscape:persp3d-origin="25 : 10 : 1" inkscape:vp_z="50 : 15 : 1" inkscape:vp_y="0 : 1000 : 0" inkscape:vp_x="0 : 15 : 1" sodipodi:type="inkscape:persp3d"/>
    <inkscape:perspective sodipodi:type="inkscape:persp3d" inkscape:vp_x="0 : 32 : 1" inkscape:vp_y="0 : 1000 : 0" inkscape:vp_z="64 : 32 : 1" inkscape:persp3d-origin="32 : 21.333333 : 1" id="perspective9092"/>
    <inkscape:perspective sodipodi:type="inkscape:persp3d" inkscape:vp_x="0 : 50 : 1" inkscape:vp_y="0 : 1000 : 0" inkscape:vp_z="100 : 50 : 1" inkscape:persp3d-origin="50 : 33.333333 : 1" id="perspective9090"/>
    <inkscape:perspective sodipodi:type="inkscape:persp3d" inkscape:vp_x="0 : 60 : 1" inkscape:vp_y="0 : 1000 : 0" inkscape:vp_z="150 : 60 : 1" inkscape:persp3d-origin="75 : 40 : 1" id="perspective9088"/>
    <inkscape:perspective sodipodi:type="inkscape:persp3d" inkscape:vp_x="0 : 526.18109 : 1" inkscape:vp_y="0 : 1000 : 0" inkscape:vp_z="744.09448 : 526.18109 : 1" inkscape:persp3d-origin="372.04724 : 350.78739 : 1" id="perspective9086"/>
    <inkscape:perspective id="perspective9084" inkscape:persp3d-origin="0.5 : 0.33333333 : 1" inkscape:vp_z="1 : 0.5 : 1" inkscape:vp_y="0 : 1000 : 0" inkscape:vp_x="0 : 0.5 : 1" sodipodi:type="inkscape:persp3d"/>
    <inkscape:perspective id="perspective9082" inkscape:persp3d-origin="25 : 10 : 1" inkscape:vp_z="50 : 15 : 1" inkscape:vp_y="0 : 1000 : 0" inkscape:vp_x="0 : 15 : 1" sodipodi:type="inkscape:persp3d"/>
    <inkscape:perspective sodipodi:type="inkscape:persp3d" inkscape:vp_x="0 : 25 : 1" inkscape:vp_y="0 : 1000 : 0" inkscape:vp_z="50 : 25 : 1" inkscape:persp3d-origin="25 : 16.666667 : 1" id="perspective9241"/>
    <inkscape:perspective sodipodi:type="inkscape:persp3d" inkscape:vp_x="0 : 32 : 1" inkscape:vp_y="0 : 1000 : 0" inkscape:vp_z="64 : 32 : 1" inkscape:persp3d-origin="32 : 21.333333 : 1" id="perspective9239"/>
    <inkscape:perspective sodipodi:type="inkscape:persp3d" inkscape:vp_x="0 : 50 : 1" inkscape:vp_y="0 : 1000 : 0" inkscape:vp_z="100 : 50 : 1" inkscape:persp3d-origin="50 : 33.333333 : 1" id="perspective9237"/>
    <inkscape:perspective sodipodi:type="inkscape:persp3d" inkscape:vp_x="0 : 60 : 1" inkscape:vp_y="0 : 1000 : 0" inkscape:vp_z="150 : 60 : 1" inkscape:persp3d-origin="75 : 40 : 1" id="perspective9235"/>
    <inkscape:perspective sodipodi:type="inkscape:persp3d" inkscape:vp_x="0 : 526.18109 : 1" inkscape:vp_y="0 : 1000 : 0" inkscape:vp_z="744.09448 : 526.18109 : 1" inkscape:persp3d-origin="372.04724 : 350.78739 : 1" id="perspective9233"/>
    <inkscape:perspective id="perspective9231" inkscape:persp3d-origin="0.5 : 0.33333333 : 1" inkscape:vp_z="1 : 0.5 : 1" inkscape:vp_y="0 : 1000 : 0" inkscape:vp_x="0 : 0.5 : 1" sodipodi:type="inkscape:persp3d"/>
    <inkscape:perspective id="perspective9229" inkscape:persp3d-origin="25 : 10 : 1" inkscape:vp_z="50 : 15 : 1" inkscape:vp_y="0 : 1000 : 0" inkscape:vp_x="0 : 15 : 1" sodipodi:type="inkscape:persp3d"/>
    <inkscape:perspective sodipodi:type="inkscape:persp3d" inkscape:vp_x="0 : 32 : 1" inkscape:vp_y="0 : 1000 : 0" inkscape:vp_z="64 : 32 : 1" inkscape:persp3d-origin="32 : 21.333333 : 1" id="perspective9415"/>
    <inkscape:perspective sodipodi:type="inkscape:persp3d" inkscape:vp_x="0 : 50 : 1" inkscape:vp_y="0 : 1000 : 0" inkscape:vp_z="100 : 50 : 1" inkscape:persp3d-origin="50 : 33.333333 : 1" id="perspective9413"/>
    <inkscape:perspective sodipodi:type="inkscape:persp3d" inkscape:vp_x="0 : 60 : 1" inkscape:vp_y="0 : 1000 : 0" inkscape:vp_z="150 : 60 : 1" inkscape:persp3d-origin="75 : 40 : 1" id="perspective9411"/>
    <inkscape:perspective sodipodi:type="inkscape:persp3d" inkscape:vp_x="0 : 526.18109 : 1" inkscape:vp_y="0 : 1000 : 0" inkscape:vp_z="744.09448 : 526.18109 : 1" inkscape:persp3d-origin="372.04724 : 350.78739 : 1" id="perspective9409"/>
    <inkscape:perspective id="perspective9407" inkscape:persp3d-origin="0.5 : 0.33333333 : 1" inkscape:vp_z="1 : 0.5 : 1" inkscape:vp_y="0 : 1000 : 0" inkscape:vp_x="0 : 0.5 : 1" sodipodi:type="inkscape:persp3d"/>
    <inkscape:perspective id="perspective9405" inkscape:persp3d-origin="25 : 10 : 1" inkscape:vp_z="50 : 15 : 1" inkscape:vp_y="0 : 1000 : 0" inkscape:vp_x="0 : 15 : 1" sodipodi:type="inkscape:persp3d"/>
    <inkscape:perspective sodipodi:type="inkscape:persp3d" inkscape:vp_x="0 : 25 : 1" inkscape:vp_y="0 : 1000 : 0" inkscape:vp_z="50 : 25 : 1" inkscape:persp3d-origin="25 : 16.666667 : 1" id="perspective9577"/>
    <inkscape:perspective sodipodi:type="inkscape:persp3d" inkscape:vp_x="0 : 32 : 1" inkscape:vp_y="0 : 1000 : 0" inkscape:vp_z="64 : 32 : 1" inkscape:persp3d-origin="32 : 21.333333 : 1" id="perspective9575"/>
    <inkscape:perspective sodipodi:type="inkscape:persp3d" inkscape:vp_x="0 : 50 : 1" inkscape:vp_y="0 : 1000 : 0" inkscape:vp_z="100 : 50 : 1" inkscape:persp3d-origin="50 : 33.333333 : 1" id="perspective9573"/>
    <inkscape:perspective sodipodi:type="inkscape:persp3d" inkscape:vp_x="0 : 60 : 1" inkscape:vp_y="0 : 1000 : 0" inkscape:vp_z="150 : 60 : 1" inkscape:persp3d-origin="75 : 40 : 1" id="perspective9571"/>
    <inkscape:perspective sodipodi:type="inkscape:persp3d" inkscape:vp_x="0 : 526.18109 : 1" inkscape:vp_y="0 : 1000 : 0" inkscape:vp_z="744.09448 : 526.18109 : 1" inkscape:persp3d-origin="372.04724 : 350.78739 : 1" id="perspective9569"/>
    <inkscape:perspective id="perspective9567" inkscape:persp3d-origin="0.5 : 0.33333333 : 1" inkscape:vp_z="1 : 0.5 : 1" inkscape:vp_y="0 : 1000 : 0" inkscape:vp_x="0 : 0.5 : 1" sodipodi:type="inkscape:persp3d"/>
    <inkscape:perspective id="perspective9565" inkscape:persp3d-origin="25 : 10 : 1" inkscape:vp_z="50 : 15 : 1" inkscape:vp_y="0 : 1000 : 0" inkscape:vp_x="0 : 15 : 1" sodipodi:type="inkscape:persp3d"/>
    <inkscape:perspective id="perspective12439" inkscape:persp3d-origin="372.04724 : 350.78739 : 1" inkscape:vp_z="744.09448 : 526.18109 : 1" inkscape:vp_y="0 : 1000 : 0" inkscape:vp_x="0 : 526.18109 : 1" sodipodi:type="inkscape:persp3d"/>
    <inkscape:perspective id="perspective12849" inkscape:persp3d-origin="372.04724 : 350.78739 : 1" inkscape:vp_z="744.09448 : 526.18109 : 1" inkscape:vp_y="0 : 1000 : 0" inkscape:vp_x="0 : 526.18109 : 1" sodipodi:type="inkscape:persp3d"/>
  </defs>
  <sodipodi:namedview id="base" pagecolor="#ffffff" bordercolor="#666666" borderopacity="1.0" gridtolerance="13" guidetolerance="10000" objecttolerance="10" inkscape:pageopacity="0.0" inkscape:pageshadow="2" inkscape:zoom="1.4142136" inkscape:cx="-41.54732" inkscape:cy="40.909846" inkscape:document-units="px" inkscape:current-layer="layer1" showgrid="false" inkscape:window-width="1399" inkscape:window-height="874" inkscape:window-x="33" inkscape:window-y="0" inkscape:snap-bbox="true" showguides="true" inkscape:guide-bbox="true">
    <inkscape:grid type="xygrid" id="grid6453" visible="true" enabled="true" spacingx="5px" spacingy="5px"/>
  </sodipodi:namedview>
  <metadata id="metadata6364">
    <rdf:RDF>
      <cc:Work rdf:about="">
        <dc:format>image/svg+xml</dc:format>
        <dc:type rdf:resource="http://purl.org/dc/dcmitype/StillImage"/>
      </cc:Work>
    </rdf:RDF>
  </metadata>
  <g inkscape:label="Layer 1" inkscape:groupmode="layer" id="layer1" transform="translate(-17.75, -8.5)">
    <text xml:space="preserve" style="font-size: 18px; font-style: italic; font-variant: normal; font-weight: normal; font-stretch: normal; line-height: 100%; text-anchor: end; fill: rgb(0, 0, 0); fill-opacity: 1; stroke: none; stroke-width: 1px; stroke-linecap: butt; stroke-linejoin: miter; stroke-opacity: 1; font-family: DejaVu Serif;" x="10.8125" y="51.5312" id="text6874" sodipodi:linespacing="100%"><tspan sodipodi:role="line" id="tspan6876" x="10.8125" y="51.5312"/></text>
    <path sodipodi:type="arc" style="overflow: visible; marker: none; fill: rgb(254, 218, 164); fill-opacity: 1; stroke: rgb(0, 0, 0); stroke-width: 2; stroke-linecap: round; stroke-linejoin: bevel; stroke-miterlimit: 4; stroke-dasharray: none; stroke-opacity: 1; visibility: visible; display: inline;" id="path12855" sodipodi:cx="42.5" sodipodi:cy="42.5" sodipodi:rx="32.5" sodipodi:ry="32.5" d="M 75,42.5 A 32.5,32.5 0 1 1 10,42.5 A 32.5,32.5 0 1 1 75,42.5 z" transform="translate(12.75, 1.25)"/>
    <path transform="matrix(0.89566, 0, 0, 0.89566, 17.1844, 5.68443)" d="M 75,42.5 A 32.5,32.5 0 1 1 10,42.5 A 32.5,32.5 0 1 1 75,42.5 z" sodipodi:ry="32.5" sodipodi:rx="32.5" sodipodi:cy="42.5" sodipodi:cx="42.5" id="path12857" style="overflow: visible; marker: none; fill: none; fill-opacity: 1; stroke: rgb(204, 0, 0); stroke-width: 2.23299; stroke-linecap: round; stroke-linejoin: bevel; stroke-miterlimit: 4; stroke-dasharray: none; stroke-opacity: 1; visibility: visible; display: inline;" sodipodi:type="arc"/>
    <path sodipodi:type="arc" style="overflow: visible; marker: none; fill: rgb(254, 218, 164); fill-opacity: 1; stroke: rgb(0, 0, 0); stroke-width: 2; stroke-linecap: round; stroke-linejoin: bevel; stroke-miterlimit: 4; stroke-dasharray: none; stroke-opacity: 1; visibility: visible; display: inline;" id="path12863" sodipodi:cx="42.5" sodipodi:cy="42.5" sodipodi:rx="32.5" sodipodi:ry="32.5" d="M 75,42.5 A 32.5,32.5 0 1 1 10,42.5 A 32.5,32.5 0 1 1 75,42.5 z" transform="translate(88.75, 1.25)"/>
    <path transform="matrix(0.89566, 0, 0, 0.89566, 93.1844, 5.68443)" d="M 75,42.5 A 32.5,32.5 0 1 1 10,42.5 A 32.5,32.5 0 1 1 75,42.5 z" sodipodi:ry="32.5" sodipodi:rx="32.5" sodipodi:cy="42.5" sodipodi:cx="42.5" id="path12865" style="overflow: visible; marker: none; fill: none; fill-opacity: 1; stroke: rgb(0, 0, 0); stroke-width: 2.23299; stroke-linecap: round; stroke-linejoin: bevel; stroke-miterlimit: 4; stroke-dasharray: none; stroke-opacity: 1; visibility: visible; display: inline;" sodipodi:type="arc"/>
    <path style="font-size: 40px; font-style: italic; font-variant: normal; font-weight: normal; font-stretch: normal; line-height: 100%; text-anchor: end; fill: rgb(204, 0, 0); fill-opacity: 1; stroke: rgb(204, 0, 0); stroke-width: 1px; stroke-linecap: butt; stroke-linejoin: miter; stroke-opacity: 1; font-family: DejaVu Serif;" d="M 59.9375,48.609375 L 59.9375,49.234375 C 63.374972,49.963549 65.041637,51.109381 64.9375,52.671875 C 65.874969,52.463546 66.83851,51.916672 67.828125,51.03125 C 68.817675,50.14584 69.364549,48.609384 69.46875,46.421875 C 69.572882,44.234388 69.677049,39.546893 69.78125,32.359375 L 71.03125,31.265625 L 68.21875,29.078125 L 67.125,30.796875 L 56.65625,30.796875 C 57.385395,28.71357 57.906227,27.411488 58.21875,26.890625 L 59.3125,26.109375 L 55.71875,24.390625 C 55.510396,26.265656 54.885397,28.843778 53.84375,32.125 C 52.802066,35.406272 51.291651,38.765643 49.3125,42.203125 L 49.78125,42.515625 C 50.927068,41.369808 52.124983,39.807309 53.375,37.828125 L 53.375,56.578125 C 53.374982,58.661457 54.468731,59.703122 56.65625,59.703125 L 69.15625,59.703125 C 71.343714,59.703122 72.802046,58.921873 73.53125,57.359375 C 72.802046,57.151042 72.281213,56.656251 71.96875,55.875 C 71.656214,55.093752 71.552047,53.609379 71.65625,51.421875 L 70.875,51.421875 C 70.770798,52.984379 70.614548,54.442711 70.40625,55.796875 C 70.197882,57.151042 69.677049,57.828124 68.84375,57.828125 L 57.28125,57.828125 C 56.135396,57.828124 55.510396,57.203125 55.40625,55.953125 L 55.40625,46.578125 L 61.34375,46.578125 L 61.34375,47.671875 L 63.53125,46.734375 L 63.53125,39.078125 L 64.9375,38.140625 L 62.28125,35.796875 L 60.875,37.515625 L 55.5625,37.515625 L 54,36.578125 C 54.93748,34.807314 55.71873,33.140649 56.34375,31.578125 L 67.4375,31.578125 C 67.437468,41.057308 67.30726,46.291678 67.046875,47.28125 C 66.786427,48.270842 66.239552,48.791675 65.40625,48.84375 C 64.572887,48.895842 62.749972,48.817717 59.9375,48.609375 L 59.9375,48.609375 z M 55.40625,38.296875 L 61.34375,38.296875 L 61.34375,45.796875 L 55.40625,45.796875 L 55.40625,38.296875 z M 43.6875,24.703125 C 43.791658,30.640652 43.843741,35.822938 43.84375,40.25 C 43.843741,44.677096 43.401034,48.40105 42.515625,51.421875 C 41.630202,54.442711 39.833329,57.515625 37.125,60.640625 L 37.4375,61.109375 C 41.812493,57.567708 44.520824,53.296879 45.5625,48.296875 C 47.437488,50.171882 48.661445,51.760422 49.234375,53.0625 C 49.807277,54.364586 50.276027,55.06771 50.640625,55.171875 C 51.005193,55.276044 51.317692,54.781252 51.578125,53.6875 C 51.838525,52.593755 51.526025,51.578131 50.640625,50.640625 C 49.755194,49.703133 48.11457,48.661467 45.71875,47.515625 C 45.927073,44.078138 46.031239,41.213558 46.03125,38.921875 C 47.489571,37.567728 48.661445,36.447937 49.546875,35.5625 C 50.432276,34.677106 51.239567,34.130231 51.96875,33.921875 L 49.78125,31.265625 C 49.156236,33.036483 47.906237,35.171897 46.03125,37.671875 L 46.03125,27.515625 L 47.28125,26.265625 L 43.6875,24.703125 z M 40.5625,35.015625 L 39.9375,35.015625 C 39.520829,37.411478 38.921871,39.156268 38.140625,40.25 C 37.359373,41.343766 37.203123,42.04689 37.671875,42.359375 C 38.140622,42.67189 38.73958,42.697931 39.46875,42.4375 C 40.197912,42.177098 40.666661,41.526057 40.875,40.484375 C 41.083328,39.442726 40.979161,37.619811 40.5625,35.015625 L 40.5625,35.015625 z" id="text12867"/>
    <path style="font-size: 40px; font-style: italic; font-variant: normal; font-weight: normal; font-stretch: normal; line-height: 100%; text-anchor: end; fill: rgb(0, 0, 0); fill-opacity: 1; stroke: rgb(0, 0, 0); stroke-width: 1px; stroke-linecap: butt; stroke-linejoin: miter; stroke-opacity: 1; font-family: DejaVu Serif;" d="M 133.125,39.078125 L 137.8125,39.078125 L 137.8125,46.734375 L 133.125,46.734375 L 133.125,39.078125 z M 136.875,26.890625 L 133.75,25.171875 C 133.33331,27.255238 132.5781,29.807319 131.48438,32.828125 C 130.39061,35.84898 129.11457,38.71356 127.65625,41.421875 L 128.125,41.890625 C 129.16665,40.640642 130.20831,39.18231 131.25,37.515625 L 131.25,57.515625 C 131.24998,59.390623 132.4479,60.328122 134.84375,60.328125 L 144.21875,60.328125 C 145.46872,60.328122 146.48434,60.223955 147.26562,60.015625 C 148.04684,59.807289 148.74996,59.130206 149.375,57.984375 C 148.43746,57.671875 147.8385,57.020834 147.57812,56.03125 C 147.31767,55.041669 147.18746,53.661462 147.1875,51.890625 L 146.5625,51.890625 C 146.56246,53.661462 146.43226,55.22396 146.17188,56.578125 C 145.91142,57.932291 145.26038,58.609374 144.21875,58.609375 L 135.625,58.609375 C 133.85414,58.609374 132.96873,57.932291 132.96875,56.578125 L 132.96875,47.515625 L 137.8125,47.515625 L 137.8125,48.921875 L 139.84375,47.984375 C 139.73955,46.421886 139.68747,43.661472 139.6875,39.703125 L 140.9375,38.765625 L 139.0625,36.890625 L 137.65625,38.296875 L 132.96875,38.296875 L 131.5625,37.046875 L 133.90625,32.359375 L 144.53125,32.359375 L 144.53125,48.609375 C 144.53122,49.234383 144.40101,49.651049 144.14062,49.859375 C 143.88018,50.067715 141.97914,49.963549 138.4375,49.546875 L 138.4375,50.171875 C 139.99997,50.588548 141.06768,51.005215 141.64062,51.421875 C 142.21351,51.838547 142.65622,52.51563 142.96875,53.453125 C 144.53122,52.932296 145.5208,52.333338 145.9375,51.65625 C 146.35413,50.979173 146.56246,50.119799 146.5625,49.078125 L 146.5625,33.296875 L 147.96875,32.359375 L 145.78125,30.171875 L 144.375,31.578125 L 134.21875,31.578125 C 135.46873,28.86982 136.35414,27.307322 136.875,26.890625 L 136.875,26.890625 z M 119.375,39.390625 L 124.6875,39.390625 L 124.6875,52.828125 L 119.375,52.828125 L 119.375,39.390625 z M 117.34375,59.078125 L 119.375,58.140625 L 119.375,53.609375 L 124.6875,53.609375 L 124.6875,56.421875 L 126.71875,55.171875 C 126.61457,52.984379 126.56248,47.932301 126.5625,40.015625 L 127.96875,39.234375 L 125.9375,37.203125 L 124.53125,38.609375 L 119.375,38.609375 C 120.20832,35.901063 120.98957,32.776066 121.71875,29.234375 L 129.0625,29.234375 L 126.5625,26.734375 L 124.84375,28.453125 L 113.125,28.453125 L 114.375,29.703125 C 115.3125,29.390653 116.35416,29.234403 117.5,29.234375 L 119.53125,29.234375 C 118.80208,33.401065 117.91666,37.020854 116.875,40.09375 C 115.83333,43.166681 114.375,46.213553 112.5,49.234375 L 112.8125,49.546875 C 114.16666,48.296884 115.72916,46.213553 117.5,43.296875 C 117.49999,52.04688 117.44791,57.307292 117.34375,59.078125 L 117.34375,59.078125 z" id="text12859"/>
  </g>
</svg>