<?xml version="1.0" encoding="UTF-8" standalone="no"?>
<!-- Created with Inkscape (http://www.inkscape.org/) -->
<svg xmlns:dc="http://purl.org/dc/elements/1.1/" xmlns:cc="http://creativecommons.org/ns#" xmlns:rdf="http://www.w3.org/1999/02/22-rdf-syntax-ns#" xmlns:svg="http://www.w3.org/2000/svg" xmlns="http://www.w3.org/2000/svg" xmlns:sodipodi="http://sodipodi.sourceforge.net/DTD/sodipodi-0.dtd" xmlns:inkscape="http://www.inkscape.org/namespaces/inkscape" width="150" height="70" id="svg6359" sodipodi:version="0.32" inkscape:version="0.46" version="1.0" sodipodi:docname="Xiangqi Horse (Trad).svg" inkscape:output_extension="org.inkscape.output.svg.inkscape">
  <defs id="defs6361">
    <inkscape:perspective sodipodi:type="inkscape:persp3d" inkscape:vp_x="0 : 526.18109 : 1" inkscape:vp_y="0 : 1000 : 0" inkscape:vp_z="744.09448 : 526.18109 : 1" inkscape:persp3d-origin="372.04724 : 350.78739 : 1" id="perspective6367"/>
    <inkscape:perspective sodipodi:type="inkscape:persp3d" inkscape:vp_x="0 : 32 : 1" inkscape:vp_y="0 : 1000 : 0" inkscape:vp_z="64 : 32 : 1" inkscape:persp3d-origin="32 : 21.333333 : 1" id="perspective5533"/>
    <inkscape:perspective sodipodi:type="inkscape:persp3d" inkscape:vp_x="0 : 50 : 1" inkscape:vp_y="0 : 1000 : 0" inkscape:vp_z="100 : 50 : 1" inkscape:persp3d-origin="50 : 33.333333 : 1" id="perspective3275"/>
    <inkscape:perspective sodipodi:type="inkscape:persp3d" inkscape:vp_x="0 : 60 : 1" inkscape:vp_y="0 : 1000 : 0" inkscape:vp_z="150 : 60 : 1" inkscape:persp3d-origin="75 : 40 : 1" id="perspective2777"/>
    <inkscape:perspective sodipodi:type="inkscape:persp3d" inkscape:vp_x="0 : 526.18109 : 1" inkscape:vp_y="0 : 1000 : 0" inkscape:vp_z="744.09448 : 526.18109 : 1" inkscape:persp3d-origin="372.04724 : 350.78739 : 1" id="perspective2819"/>
    <inkscape:perspective id="perspective2806" inkscape:persp3d-origin="0.5 : 0.33333333 : 1" inkscape:vp_z="1 : 0.5 : 1" inkscape:vp_y="0 : 1000 : 0" inkscape:vp_x="0 : 0.5 : 1" sodipodi:type="inkscape:persp3d"/>
    <inkscape:perspective id="perspective2714" inkscape:persp3d-origin="25 : 10 : 1" inkscape:vp_z="50 : 15 : 1" inkscape:vp_y="0 : 1000 : 0" inkscape:vp_x="0 : 15 : 1" sodipodi:type="inkscape:persp3d"/>
    <inkscape:perspective sodipodi:type="inkscape:persp3d" inkscape:vp_x="0 : 32 : 1" inkscape:vp_y="0 : 1000 : 0" inkscape:vp_z="64 : 32 : 1" inkscape:persp3d-origin="32 : 21.333333 : 1" id="perspective6738"/>
    <inkscape:perspective sodipodi:type="inkscape:persp3d" inkscape:vp_x="0 : 50 : 1" inkscape:vp_y="0 : 1000 : 0" inkscape:vp_z="100 : 50 : 1" inkscape:persp3d-origin="50 : 33.333333 : 1" id="perspective6736"/>
    <inkscape:perspective sodipodi:type="inkscape:persp3d" inkscape:vp_x="0 : 60 : 1" inkscape:vp_y="0 : 1000 : 0" inkscape:vp_z="150 : 60 : 1" inkscape:persp3d-origin="75 : 40 : 1" id="perspective6734"/>
    <inkscape:perspective sodipodi:type="inkscape:persp3d" inkscape:vp_x="0 : 526.18109 : 1" inkscape:vp_y="0 : 1000 : 0" inkscape:vp_z="744.09448 : 526.18109 : 1" inkscape:persp3d-origin="372.04724 : 350.78739 : 1" id="perspective6732"/>
    <inkscape:perspective id="perspective6730" inkscape:persp3d-origin="0.5 : 0.33333333 : 1" inkscape:vp_z="1 : 0.5 : 1" inkscape:vp_y="0 : 1000 : 0" inkscape:vp_x="0 : 0.5 : 1" sodipodi:type="inkscape:persp3d"/>
    <inkscape:perspective id="perspective6728" inkscape:persp3d-origin="25 : 10 : 1" inkscape:vp_z="50 : 15 : 1" inkscape:vp_y="0 : 1000 : 0" inkscape:vp_x="0 : 15 : 1" sodipodi:type="inkscape:persp3d"/>
    <inkscape:perspective sodipodi:type="inkscape:persp3d" inkscape:vp_x="0 : 25 : 1" inkscape:vp_y="0 : 1000 : 0" inkscape:vp_z="50 : 25 : 1" inkscape:persp3d-origin="25 : 16.666667 : 1" id="perspective2557"/>
    <inkscape:perspective sodipodi:type="inkscape:persp3d" inkscape:vp_x="0 : 32 : 1" inkscape:vp_y="0 : 1000 : 0" inkscape:vp_z="64 : 32 : 1" inkscape:persp3d-origin="32 : 21.333333 : 1" id="perspective6846"/>
    <inkscape:perspective sodipodi:type="inkscape:persp3d" inkscape:vp_x="0 : 50 : 1" inkscape:vp_y="0 : 1000 : 0" inkscape:vp_z="100 : 50 : 1" inkscape:persp3d-origin="50 : 33.333333 : 1" id="perspective6844"/>
    <inkscape:perspective sodipodi:type="inkscape:persp3d" inkscape:vp_x="0 : 60 : 1" inkscape:vp_y="0 : 1000 : 0" inkscape:vp_z="150 : 60 : 1" inkscape:persp3d-origin="75 : 40 : 1" id="perspective6842"/>
    <inkscape:perspective sodipodi:type="inkscape:persp3d" inkscape:vp_x="0 : 526.18109 : 1" inkscape:vp_y="0 : 1000 : 0" inkscape:vp_z="744.09448 : 526.18109 : 1" inkscape:persp3d-origin="372.04724 : 350.78739 : 1" id="perspective6840"/>
    <inkscape:perspective id="perspective6838" inkscape:persp3d-origin="0.5 : 0.33333333 : 1" inkscape:vp_z="1 : 0.5 : 1" inkscape:vp_y="0 : 1000 : 0" inkscape:vp_x="0 : 0.5 : 1" sodipodi:type="inkscape:persp3d"/>
    <inkscape:perspective id="perspective6836" inkscape:persp3d-origin="25 : 10 : 1" inkscape:vp_z="50 : 15 : 1" inkscape:vp_y="0 : 1000 : 0" inkscape:vp_x="0 : 15 : 1" sodipodi:type="inkscape:persp3d"/>
    <inkscape:perspective sodipodi:type="inkscape:persp3d" inkscape:vp_x="0 : 32 : 1" inkscape:vp_y="0 : 1000 : 0" inkscape:vp_z="64 : 32 : 1" inkscape:persp3d-origin="32 : 21.333333 : 1" id="perspective9092"/>
    <inkscape:perspective sodipodi:type="inkscape:persp3d" inkscape:vp_x="0 : 50 : 1" inkscape:vp_y="0 : 1000 : 0" inkscape:vp_z="100 : 50 : 1" inkscape:persp3d-origin="50 : 33.333333 : 1" id="perspective9090"/>
    <inkscape:perspective sodipodi:type="inkscape:persp3d" inkscape:vp_x="0 : 60 : 1" inkscape:vp_y="0 : 1000 : 0" inkscape:vp_z="150 : 60 : 1" inkscape:persp3d-origin="75 : 40 : 1" id="perspective9088"/>
    <inkscape:perspective sodipodi:type="inkscape:persp3d" inkscape:vp_x="0 : 526.18109 : 1" inkscape:vp_y="0 : 1000 : 0" inkscape:vp_z="744.09448 : 526.18109 : 1" inkscape:persp3d-origin="372.04724 : 350.78739 : 1" id="perspective9086"/>
    <inkscape:perspective id="perspective9084" inkscape:persp3d-origin="0.5 : 0.33333333 : 1" inkscape:vp_z="1 : 0.5 : 1" inkscape:vp_y="0 : 1000 : 0" inkscape:vp_x="0 : 0.5 : 1" sodipodi:type="inkscape:persp3d"/>
    <inkscape:perspective id="perspective9082" inkscape:persp3d-origin="25 : 10 : 1" inkscape:vp_z="50 : 15 : 1" inkscape:vp_y="0 : 1000 : 0" inkscape:vp_x="0 : 15 : 1" sodipodi:type="inkscape:persp3d"/>
    <inkscape:perspective sodipodi:type="inkscape:persp3d" inkscape:vp_x="0 : 25 : 1" inkscape:vp_y="0 : 1000 : 0" inkscape:vp_z="50 : 25 : 1" inkscape:persp3d-origin="25 : 16.666667 : 1" id="perspective9241"/>
    <inkscape:perspective sodipodi:type="inkscape:persp3d" inkscape:vp_x="0 : 32 : 1" inkscape:vp_y="0 : 1000 : 0" inkscape:vp_z="64 : 32 : 1" inkscape:persp3d-origin="32 : 21.333333 : 1" id="perspective9239"/>
    <inkscape:perspective sodipodi:type="inkscape:persp3d" inkscape:vp_x="0 : 50 : 1" inkscape:vp_y="0 : 1000 : 0" inkscape:vp_z="100 : 50 : 1" inkscape:persp3d-origin="50 : 33.333333 : 1" id="perspective9237"/>
    <inkscape:perspective sodipodi:type="inkscape:persp3d" inkscape:vp_x="0 : 60 : 1" inkscape:vp_y="0 : 1000 : 0" inkscape:vp_z="150 : 60 : 1" inkscape:persp3d-origin="75 : 40 : 1" id="perspective9235"/>
    <inkscape:perspective sodipodi:type="inkscape:persp3d" inkscape:vp_x="0 : 526.18109 : 1" inkscape:vp_y="0 : 1000 : 0" inkscape:vp_z="744.09448 : 526.18109 : 1" inkscape:persp3d-origin="372.04724 : 350.78739 : 1" id="perspective9233"/>
    <inkscape:perspective id="perspective9231" inkscape:persp3d-origin="0.5 : 0.33333333 : 1" inkscape:vp_z="1 : 0.5 : 1" inkscape:vp_y="0 : 1000 : 0" inkscape:vp_x="0 : 0.5 : 1" sodipodi:type="inkscape:persp3d"/>
    <inkscape:perspective id="perspective9229" inkscape:persp3d-origin="25 : 10 : 1" inkscape:vp_z="50 : 15 : 1" inkscape:vp_y="0 : 1000 : 0" inkscape:vp_x="0 : 15 : 1" sodipodi:type="inkscape:persp3d"/>
    <inkscape:perspective sodipodi:type="inkscape:persp3d" inkscape:vp_x="0 : 32 : 1" inkscape:vp_y="0 : 1000 : 0" inkscape:vp_z="64 : 32 : 1" inkscape:persp3d-origin="32 : 21.333333 : 1" id="perspective9415"/>
    <inkscape:perspective sodipodi:type="inkscape:persp3d" inkscape:vp_x="0 : 50 : 1" inkscape:vp_y="0 : 1000 : 0" inkscape:vp_z="100 : 50 : 1" inkscape:persp3d-origin="50 : 33.333333 : 1" id="perspective9413"/>
    <inkscape:perspective sodipodi:type="inkscape:persp3d" inkscape:vp_x="0 : 60 : 1" inkscape:vp_y="0 : 1000 : 0" inkscape:vp_z="150 : 60 : 1" inkscape:persp3d-origin="75 : 40 : 1" id="perspective9411"/>
    <inkscape:perspective sodipodi:type="inkscape:persp3d" inkscape:vp_x="0 : 526.18109 : 1" inkscape:vp_y="0 : 1000 : 0" inkscape:vp_z="744.09448 : 526.18109 : 1" inkscape:persp3d-origin="372.04724 : 350.78739 : 1" id="perspective9409"/>
    <inkscape:perspective id="perspective9407" inkscape:persp3d-origin="0.5 : 0.33333333 : 1" inkscape:vp_z="1 : 0.5 : 1" inkscape:vp_y="0 : 1000 : 0" inkscape:vp_x="0 : 0.5 : 1" sodipodi:type="inkscape:persp3d"/>
    <inkscape:perspective id="perspective9405" inkscape:persp3d-origin="25 : 10 : 1" inkscape:vp_z="50 : 15 : 1" inkscape:vp_y="0 : 1000 : 0" inkscape:vp_x="0 : 15 : 1" sodipodi:type="inkscape:persp3d"/>
    <inkscape:perspective sodipodi:type="inkscape:persp3d" inkscape:vp_x="0 : 25 : 1" inkscape:vp_y="0 : 1000 : 0" inkscape:vp_z="50 : 25 : 1" inkscape:persp3d-origin="25 : 16.666667 : 1" id="perspective9577"/>
    <inkscape:perspective sodipodi:type="inkscape:persp3d" inkscape:vp_x="0 : 32 : 1" inkscape:vp_y="0 : 1000 : 0" inkscape:vp_z="64 : 32 : 1" inkscape:persp3d-origin="32 : 21.333333 : 1" id="perspective9575"/>
    <inkscape:perspective sodipodi:type="inkscape:persp3d" inkscape:vp_x="0 : 50 : 1" inkscape:vp_y="0 : 1000 : 0" inkscape:vp_z="100 : 50 : 1" inkscape:persp3d-origin="50 : 33.333333 : 1" id="perspective9573"/>
    <inkscape:perspective sodipodi:type="inkscape:persp3d" inkscape:vp_x="0 : 60 : 1" inkscape:vp_y="0 : 1000 : 0" inkscape:vp_z="150 : 60 : 1" inkscape:persp3d-origin="75 : 40 : 1" id="perspective9571"/>
    <inkscape:perspective sodipodi:type="inkscape:persp3d" inkscape:vp_x="0 : 526.18109 : 1" inkscape:vp_y="0 : 1000 : 0" inkscape:vp_z="744.09448 : 526.18109 : 1" inkscape:persp3d-origin="372.04724 : 350.78739 : 1" id="perspective9569"/>
    <inkscape:perspective id="perspective9567" inkscape:persp3d-origin="0.5 : 0.33333333 : 1" inkscape:vp_z="1 : 0.5 : 1" inkscape:vp_y="0 : 1000 : 0" inkscape:vp_x="0 : 0.5 : 1" sodipodi:type="inkscape:persp3d"/>
    <inkscape:perspective id="perspective9565" inkscape:persp3d-origin="25 : 10 : 1" inkscape:vp_z="50 : 15 : 1" inkscape:vp_y="0 : 1000 : 0" inkscape:vp_x="0 : 15 : 1" sodipodi:type="inkscape:persp3d"/>
    <inkscape:perspective id="perspective12439" inkscape:persp3d-origin="372.04724 : 350.78739 : 1" inkscape:vp_z="744.09448 : 526.18109 : 1" inkscape:vp_y="0 : 1000 : 0" inkscape:vp_x="0 : 526.18109 : 1" sodipodi:type="inkscape:persp3d"/>
    <inkscape:perspective id="perspective12849" inkscape:persp3d-origin="372.04724 : 350.78739 : 1" inkscape:vp_z="744.09448 : 526.18109 : 1" inkscape:vp_y="0 : 1000 : 0" inkscape:vp_x="0 : 526.18109 : 1" sodipodi:type="inkscape:persp3d"/>
  </defs>
  <sodipodi:namedview id="base" pagecolor="#ffffff" bordercolor="#666666" borderopacity="1.0" gridtolerance="13" guidetolerance="10000" objecttolerance="10" inkscape:pageopacity="0.0" inkscape:pageshadow="2" inkscape:zoom="1.4142136" inkscape:cx="-41.54732" inkscape:cy="40.909846" inkscape:document-units="px" inkscape:current-layer="layer1" showgrid="false" inkscape:window-width="1399" inkscape:window-height="874" inkscape:window-x="33" inkscape:window-y="0" inkscape:snap-bbox="true" showguides="true" inkscape:guide-bbox="true">
    <inkscape:grid type="xygrid" id="grid6453" visible="true" enabled="true" spacingx="5px" spacingy="5px"/>
  </sodipodi:namedview>
  <metadata id="metadata6364">
    <rdf:RDF>
      <cc:Work rdf:about="">
        <dc:format>image/svg+xml</dc:format>
        <dc:type rdf:resource="http://purl.org/dc/dcmitype/StillImage"/>
      </cc:Work>
    </rdf:RDF>
  </metadata>
  <g inkscape:label="Layer 1" inkscape:groupmode="layer" id="layer1" transform="translate(-17.75, -8.5)">
    <text xml:space="preserve" style="font-size: 18px; font-style: italic; font-variant: normal; font-weight: normal; font-stretch: normal; line-height: 100%; text-anchor: end; fill: rgb(0, 0, 0); fill-opacity: 1; stroke: none; stroke-width: 1px; stroke-linecap: butt; stroke-linejoin: miter; stroke-opacity: 1; font-family: DejaVu Serif;" x="10.8125" y="51.5312" id="text6874" sodipodi:linespacing="100%"><tspan sodipodi:role="line" id="tspan6876" x="10.8125" y="51.5312"/></text>
    <path sodipodi:type="arc" style="overflow: visible; marker: none; fill: rgb(254, 218, 164); fill-opacity: 1; stroke: rgb(0, 0, 0); stroke-width: 2; stroke-linecap: round; stroke-linejoin: bevel; stroke-miterlimit: 4; stroke-dasharray: none; stroke-opacity: 1; visibility: visible; display: inline;" id="path12855" sodipodi:cx="42.5" sodipodi:cy="42.5" sodipodi:rx="32.5" sodipodi:ry="32.5" d="M 75,42.5 A 32.5,32.5 0 1 1 10,42.5 A 32.5,32.5 0 1 1 75,42.5 z" transform="translate(12.75, 1.25)"/>
    <path transform="matrix(0.89566, 0, 0, 0.89566, 17.1844, 5.68443)" d="M 75,42.5 A 32.5,32.5 0 1 1 10,42.5 A 32.5,32.5 0 1 1 75,42.5 z" sodipodi:ry="32.5" sodipodi:rx="32.5" sodipodi:cy="42.5" sodipodi:cx="42.5" id="path12857" style="overflow: visible; marker: none; fill: none; fill-opacity: 1; stroke: rgb(204, 0, 0); stroke-width: 2.23299; stroke-linecap: round; stroke-linejoin: bevel; stroke-miterlimit: 4; stroke-dasharray: none; stroke-opacity: 1; visibility: visible; display: inline;" sodipodi:type="arc"/>
    <path sodipodi:type="arc" style="overflow: visible; marker: none; fill: rgb(254, 218, 164); fill-opacity: 1; stroke: rgb(0, 0, 0); stroke-width: 2; stroke-linecap: round; stroke-linejoin: bevel; stroke-miterlimit: 4; stroke-dasharray: none; stroke-opacity: 1; visibility: visible; display: inline;" id="path12863" sodipodi:cx="42.5" sodipodi:cy="42.5" sodipodi:rx="32.5" sodipodi:ry="32.5" d="M 75,42.5 A 32.5,32.5 0 1 1 10,42.5 A 32.5,32.5 0 1 1 75,42.5 z" transform="translate(88.75, 1.25)"/>
    <path transform="matrix(0.89566, 0, 0, 0.89566, 93.1844, 5.68443)" d="M 75,42.5 A 32.5,32.5 0 1 1 10,42.5 A 32.5,32.5 0 1 1 75,42.5 z" sodipodi:ry="32.5" sodipodi:rx="32.5" sodipodi:cy="42.5" sodipodi:cx="42.5" id="path12865" style="overflow: visible; marker: none; fill: none; fill-opacity: 1; stroke: rgb(0, 0, 0); stroke-width: 2.23299; stroke-linecap: round; stroke-linejoin: bevel; stroke-miterlimit: 4; stroke-dasharray: none; stroke-opacity: 1; visibility: visible; display: inline;" sodipodi:type="arc"/>
    <path style="font-size: 40px; font-style: italic; font-variant: normal; font-weight: normal; font-stretch: normal; line-height: 100%; text-anchor: end; fill: rgb(204, 0, 0); fill-opacity: 1; stroke: rgb(204, 0, 0); stroke-width: 1px; stroke-linecap: butt; stroke-linejoin: miter; stroke-opacity: 1; font-family: DejaVu Serif;" d="M 49.875,32.578125 L 49.875,43.984375 C 49.874985,45.234388 49.822901,46.901053 49.71875,48.984375 L 51.90625,48.515625 L 51.90625,47.734375 L 68.78125,47.421875 C 67.947883,53.463546 67.348926,56.901043 66.984375,57.734375 C 66.61976,58.567708 66.072885,58.958332 65.34375,58.90625 C 64.614553,58.854166 62.843722,58.515625 60.03125,57.890625 L 60.03125,58.515625 C 61.69789,59.140624 62.791638,59.661457 63.3125,60.078125 C 63.833304,60.494789 64.24997,61.171872 64.5625,62.109375 C 66.333302,61.692705 67.609342,60.911455 68.390625,59.765625 C 69.17184,58.619791 69.979131,54.765628 70.8125,48.203125 L 72.21875,47.265625 L 69.71875,45.078125 L 68.3125,46.640625 L 60.65625,46.796875 L 60.65625,41.328125 L 69.71875,41.328125 L 66.90625,38.671875 L 65.03125,40.546875 L 60.65625,40.546875 L 60.65625,35.234375 L 69.875,35.234375 L 67.21875,32.578125 L 65.34375,34.453125 L 60.65625,34.453125 L 60.65625,29.296875 L 70.8125,29.296875 L 68,26.328125 L 65.8125,28.515625 L 52.0625,28.515625 L 49.71875,27.265625 C 49.822901,29.453154 49.874985,31.223985 49.875,32.578125 L 49.875,32.578125 z M 48.625,51.015625 C 47.58332,53.619796 46.61978,55.312503 45.734375,56.09375 C 44.848948,56.875001 44.588532,57.447917 44.953125,57.8125 C 45.317698,58.177083 45.916655,58.28125 46.75,58.125 C 47.58332,57.96875 48.182278,57.369792 48.546875,56.328125 C 48.911444,55.286461 49.145819,53.567713 49.25,51.171875 L 48.625,51.015625 z M 51.90625,51.171875 C 52.635399,53.776046 52.999982,55.677086 53,56.875 C 52.999982,58.072917 53.364565,58.489583 54.09375,58.125 C 54.822896,57.760417 55.239563,57.135418 55.34375,56.25 C 55.447896,55.364586 54.510397,53.567713 52.53125,50.859375 L 51.90625,51.171875 z M 56.4375,50.546875 C 57.687477,53.04688 58.390601,54.869795 58.546875,56.015625 C 58.703101,57.161459 59.145809,57.447917 59.875,56.875 C 60.604141,56.302085 60.864557,55.494794 60.65625,54.453125 C 60.447891,53.411463 59.145809,52.005214 56.75,50.234375 L 56.4375,50.546875 z M 61.75,49.609375 C 62.999972,52.005214 63.755179,53.802088 64.015625,55 C 64.276012,56.197919 64.744761,56.406252 65.421875,55.625 C 66.098927,54.843753 66.255177,54.036462 65.890625,53.203125 C 65.526011,52.369797 64.302054,51.067715 62.21875,49.296875 L 61.75,49.609375 z M 51.90625,29.296875 L 58.625,29.296875 L 58.625,34.453125 L 51.90625,34.453125 L 51.90625,29.296875 z M 51.90625,35.234375 L 58.625,35.234375 L 58.625,40.546875 L 51.90625,40.546875 L 51.90625,35.234375 z M 51.90625,41.328125 L 58.625,41.328125 L 58.625,46.796875 L 51.90625,46.953125 L 51.90625,41.328125 z M 43.625,55.546875 L 43.625,37.890625 L 44.875,37.265625 L 43.15625,36.015625 C 44.927073,32.265651 46.124988,29.765653 46.75,28.515625 L 48.3125,27.578125 L 44.875,25.390625 C 44.041657,28.411488 42.895825,31.666693 41.4375,35.15625 C 39.979161,38.645853 38.260413,41.848975 36.28125,44.765625 L 36.75,45.078125 C 38.729163,42.89064 40.343744,40.807309 41.59375,38.828125 L 41.59375,53.671875 C 41.593743,55.963544 41.54166,58.671874 41.4375,61.796875 L 43.78125,60.546875 C 43.677074,58.880207 43.624991,57.213543 43.625,55.546875 L 43.625,55.546875 z" id="text12867"/>
    <path style="font-size: 40px; font-style: italic; font-variant: normal; font-weight: normal; font-stretch: normal; line-height: 100%; text-anchor: end; fill: rgb(0, 0, 0); fill-opacity: 1; stroke: rgb(0, 0, 0); stroke-width: 1px; stroke-linecap: butt; stroke-linejoin: miter; stroke-opacity: 1; font-family: DejaVu Serif;" d="M 118.35938,49.03125 L 120.70312,48.25 L 120.70312,46.53125 L 145.23438,46.21875 C 145.23434,49.239592 145.10413,51.687506 144.84375,53.5625 C 144.5833,55.437502 144.19268,56.765626 143.67188,57.546875 C 143.15101,58.328124 142.21351,58.640624 140.85938,58.484375 C 139.50518,58.328124 137.94268,58.09375 136.17188,57.78125 L 136.01562,58.5625 C 139.55726,59.291665 141.43226,60.385414 141.64062,61.84375 C 143.51559,61.322913 144.81768,60.489581 145.54688,59.34375 C 146.27601,58.197916 146.7708,56.713543 147.03125,54.890625 C 147.29163,53.067713 147.47392,50.437507 147.57812,47 L 149.29688,45.90625 L 146.32812,43.40625 L 144.92188,45.4375 L 133.51562,45.59375 L 133.51562,40.4375 L 145.54688,40.4375 L 142.89062,37.78125 L 141.01562,39.65625 L 133.51562,39.65625 L 133.51562,34.5 L 145.54688,34.5 L 143.04688,32 L 141.32812,33.71875 L 133.51562,33.71875 L 133.51562,28.40625 L 147.26562,28.40625 L 144.45312,25.59375 L 142.42188,27.625 L 121.17188,27.625 L 118.35938,26.21875 C 118.46353,29.447945 118.51562,33.01565 118.51562,36.921875 C 118.51562,40.828142 118.46353,44.864596 118.35938,49.03125 L 118.35938,49.03125 z M 117.89062,49.96875 C 117.16145,52.677088 116.19791,54.500003 115,55.4375 C 113.80208,56.375001 113.41146,57.182292 113.82812,57.859375 C 114.24479,58.536458 114.94791,58.692707 115.9375,58.328125 C 116.92708,57.963541 117.65624,57.156251 118.125,55.90625 C 118.59374,54.656253 118.77603,52.677088 118.67188,49.96875 L 117.89062,49.96875 z M 122.10938,50.125 C 123.2552,52.520839 123.85415,54.369795 123.90625,55.671875 C 123.95832,56.973959 124.34895,57.494792 125.07812,57.234375 C 125.80728,56.973959 126.24999,56.453126 126.40625,55.671875 C 126.56249,54.890628 126.38019,54.031254 125.85938,53.09375 C 125.33853,52.156256 124.24478,51.010423 122.57812,49.65625 L 122.10938,50.125 z M 136.48438,48.875 C 137.94268,50.541674 138.8281,52.026047 139.14062,53.328125 C 139.4531,54.630211 139.89581,55.203128 140.46875,55.046875 C 141.04164,54.890628 141.4583,54.473962 141.71875,53.796875 C 141.97914,53.119796 141.82289,52.338547 141.25,51.453125 C 140.67705,50.567716 139.24476,49.552092 136.95312,48.40625 L 136.48438,48.875 z M 120.70312,28.40625 L 131.32812,28.40625 L 131.32812,33.71875 L 120.70312,33.71875 L 120.70312,28.40625 z M 120.70312,34.5 L 131.32812,34.5 L 131.32812,39.65625 L 120.70312,39.65625 L 120.70312,34.5 z M 120.70312,40.4375 L 131.32812,40.4375 L 131.32812,45.59375 L 120.70312,45.75 L 120.70312,40.4375 z M 129.14062,49.34375 C 130.28644,50.80209 131.01561,52.312505 131.32812,53.875 C 131.6406,55.437502 132.1354,56.114585 132.8125,55.90625 C 133.48956,55.697919 133.90623,55.255211 134.0625,54.578125 C 134.21873,53.901046 134.03644,53.119796 133.51562,52.234375 C 132.99477,51.348965 131.69269,50.229174 129.60938,48.875 L 129.14062,49.34375 z" id="text12859"/>
  </g>
</svg>