<?xml version="1.0" encoding="UTF-8" standalone="no"?>
<!-- Created with Inkscape (http://www.inkscape.org/) -->
<svg xmlns:dc="http://purl.org/dc/elements/1.1/" xmlns:cc="http://creativecommons.org/ns#" xmlns:rdf="http://www.w3.org/1999/02/22-rdf-syntax-ns#" xmlns:svg="http://www.w3.org/2000/svg" xmlns="http://www.w3.org/2000/svg" xmlns:sodipodi="http://sodipodi.sourceforge.net/DTD/sodipodi-0.dtd" xmlns:inkscape="http://www.inkscape.org/namespaces/inkscape" width="150" height="70" id="svg6359" sodipodi:version="0.32" inkscape:version="0.46" version="1.0" sodipodi:docname="Xiangqi Elephant (Trad).svg" inkscape:output_extension="org.inkscape.output.svg.inkscape">
  <defs id="defs6361">
    <inkscape:perspective sodipodi:type="inkscape:persp3d" inkscape:vp_x="0 : 526.18109 : 1" inkscape:vp_y="0 : 1000 : 0" inkscape:vp_z="744.09448 : 526.18109 : 1" inkscape:persp3d-origin="372.04724 : 350.78739 : 1" id="perspective6367"/>
    <inkscape:perspective sodipodi:type="inkscape:persp3d" inkscape:vp_x="0 : 32 : 1" inkscape:vp_y="0 : 1000 : 0" inkscape:vp_z="64 : 32 : 1" inkscape:persp3d-origin="32 : 21.333333 : 1" id="perspective5533"/>
    <inkscape:perspective sodipodi:type="inkscape:persp3d" inkscape:vp_x="0 : 50 : 1" inkscape:vp_y="0 : 1000 : 0" inkscape:vp_z="100 : 50 : 1" inkscape:persp3d-origin="50 : 33.333333 : 1" id="perspective3275"/>
    <inkscape:perspective sodipodi:type="inkscape:persp3d" inkscape:vp_x="0 : 60 : 1" inkscape:vp_y="0 : 1000 : 0" inkscape:vp_z="150 : 60 : 1" inkscape:persp3d-origin="75 : 40 : 1" id="perspective2777"/>
    <inkscape:perspective sodipodi:type="inkscape:persp3d" inkscape:vp_x="0 : 526.18109 : 1" inkscape:vp_y="0 : 1000 : 0" inkscape:vp_z="744.09448 : 526.18109 : 1" inkscape:persp3d-origin="372.04724 : 350.78739 : 1" id="perspective2819"/>
    <inkscape:perspective id="perspective2806" inkscape:persp3d-origin="0.5 : 0.33333333 : 1" inkscape:vp_z="1 : 0.5 : 1" inkscape:vp_y="0 : 1000 : 0" inkscape:vp_x="0 : 0.5 : 1" sodipodi:type="inkscape:persp3d"/>
    <inkscape:perspective id="perspective2714" inkscape:persp3d-origin="25 : 10 : 1" inkscape:vp_z="50 : 15 : 1" inkscape:vp_y="0 : 1000 : 0" inkscape:vp_x="0 : 15 : 1" sodipodi:type="inkscape:persp3d"/>
    <inkscape:perspective sodipodi:type="inkscape:persp3d" inkscape:vp_x="0 : 32 : 1" inkscape:vp_y="0 : 1000 : 0" inkscape:vp_z="64 : 32 : 1" inkscape:persp3d-origin="32 : 21.333333 : 1" id="perspective6738"/>
    <inkscape:perspective sodipodi:type="inkscape:persp3d" inkscape:vp_x="0 : 50 : 1" inkscape:vp_y="0 : 1000 : 0" inkscape:vp_z="100 : 50 : 1" inkscape:persp3d-origin="50 : 33.333333 : 1" id="perspective6736"/>
    <inkscape:perspective sodipodi:type="inkscape:persp3d" inkscape:vp_x="0 : 60 : 1" inkscape:vp_y="0 : 1000 : 0" inkscape:vp_z="150 : 60 : 1" inkscape:persp3d-origin="75 : 40 : 1" id="perspective6734"/>
    <inkscape:perspective sodipodi:type="inkscape:persp3d" inkscape:vp_x="0 : 526.18109 : 1" inkscape:vp_y="0 : 1000 : 0" inkscape:vp_z="744.09448 : 526.18109 : 1" inkscape:persp3d-origin="372.04724 : 350.78739 : 1" id="perspective6732"/>
    <inkscape:perspective id="perspective6730" inkscape:persp3d-origin="0.5 : 0.33333333 : 1" inkscape:vp_z="1 : 0.5 : 1" inkscape:vp_y="0 : 1000 : 0" inkscape:vp_x="0 : 0.5 : 1" sodipodi:type="inkscape:persp3d"/>
    <inkscape:perspective id="perspective6728" inkscape:persp3d-origin="25 : 10 : 1" inkscape:vp_z="50 : 15 : 1" inkscape:vp_y="0 : 1000 : 0" inkscape:vp_x="0 : 15 : 1" sodipodi:type="inkscape:persp3d"/>
    <inkscape:perspective sodipodi:type="inkscape:persp3d" inkscape:vp_x="0 : 25 : 1" inkscape:vp_y="0 : 1000 : 0" inkscape:vp_z="50 : 25 : 1" inkscape:persp3d-origin="25 : 16.666667 : 1" id="perspective2557"/>
    <inkscape:perspective sodipodi:type="inkscape:persp3d" inkscape:vp_x="0 : 32 : 1" inkscape:vp_y="0 : 1000 : 0" inkscape:vp_z="64 : 32 : 1" inkscape:persp3d-origin="32 : 21.333333 : 1" id="perspective6846"/>
    <inkscape:perspective sodipodi:type="inkscape:persp3d" inkscape:vp_x="0 : 50 : 1" inkscape:vp_y="0 : 1000 : 0" inkscape:vp_z="100 : 50 : 1" inkscape:persp3d-origin="50 : 33.333333 : 1" id="perspective6844"/>
    <inkscape:perspective sodipodi:type="inkscape:persp3d" inkscape:vp_x="0 : 60 : 1" inkscape:vp_y="0 : 1000 : 0" inkscape:vp_z="150 : 60 : 1" inkscape:persp3d-origin="75 : 40 : 1" id="perspective6842"/>
    <inkscape:perspective sodipodi:type="inkscape:persp3d" inkscape:vp_x="0 : 526.18109 : 1" inkscape:vp_y="0 : 1000 : 0" inkscape:vp_z="744.09448 : 526.18109 : 1" inkscape:persp3d-origin="372.04724 : 350.78739 : 1" id="perspective6840"/>
    <inkscape:perspective id="perspective6838" inkscape:persp3d-origin="0.5 : 0.33333333 : 1" inkscape:vp_z="1 : 0.5 : 1" inkscape:vp_y="0 : 1000 : 0" inkscape:vp_x="0 : 0.5 : 1" sodipodi:type="inkscape:persp3d"/>
    <inkscape:perspective id="perspective6836" inkscape:persp3d-origin="25 : 10 : 1" inkscape:vp_z="50 : 15 : 1" inkscape:vp_y="0 : 1000 : 0" inkscape:vp_x="0 : 15 : 1" sodipodi:type="inkscape:persp3d"/>
    <inkscape:perspective sodipodi:type="inkscape:persp3d" inkscape:vp_x="0 : 32 : 1" inkscape:vp_y="0 : 1000 : 0" inkscape:vp_z="64 : 32 : 1" inkscape:persp3d-origin="32 : 21.333333 : 1" id="perspective9092"/>
    <inkscape:perspective sodipodi:type="inkscape:persp3d" inkscape:vp_x="0 : 50 : 1" inkscape:vp_y="0 : 1000 : 0" inkscape:vp_z="100 : 50 : 1" inkscape:persp3d-origin="50 : 33.333333 : 1" id="perspective9090"/>
    <inkscape:perspective sodipodi:type="inkscape:persp3d" inkscape:vp_x="0 : 60 : 1" inkscape:vp_y="0 : 1000 : 0" inkscape:vp_z="150 : 60 : 1" inkscape:persp3d-origin="75 : 40 : 1" id="perspective9088"/>
    <inkscape:perspective sodipodi:type="inkscape:persp3d" inkscape:vp_x="0 : 526.18109 : 1" inkscape:vp_y="0 : 1000 : 0" inkscape:vp_z="744.09448 : 526.18109 : 1" inkscape:persp3d-origin="372.04724 : 350.78739 : 1" id="perspective9086"/>
    <inkscape:perspective id="perspective9084" inkscape:persp3d-origin="0.5 : 0.33333333 : 1" inkscape:vp_z="1 : 0.5 : 1" inkscape:vp_y="0 : 1000 : 0" inkscape:vp_x="0 : 0.5 : 1" sodipodi:type="inkscape:persp3d"/>
    <inkscape:perspective id="perspective9082" inkscape:persp3d-origin="25 : 10 : 1" inkscape:vp_z="50 : 15 : 1" inkscape:vp_y="0 : 1000 : 0" inkscape:vp_x="0 : 15 : 1" sodipodi:type="inkscape:persp3d"/>
    <inkscape:perspective sodipodi:type="inkscape:persp3d" inkscape:vp_x="0 : 25 : 1" inkscape:vp_y="0 : 1000 : 0" inkscape:vp_z="50 : 25 : 1" inkscape:persp3d-origin="25 : 16.666667 : 1" id="perspective9241"/>
    <inkscape:perspective sodipodi:type="inkscape:persp3d" inkscape:vp_x="0 : 32 : 1" inkscape:vp_y="0 : 1000 : 0" inkscape:vp_z="64 : 32 : 1" inkscape:persp3d-origin="32 : 21.333333 : 1" id="perspective9239"/>
    <inkscape:perspective sodipodi:type="inkscape:persp3d" inkscape:vp_x="0 : 50 : 1" inkscape:vp_y="0 : 1000 : 0" inkscape:vp_z="100 : 50 : 1" inkscape:persp3d-origin="50 : 33.333333 : 1" id="perspective9237"/>
    <inkscape:perspective sodipodi:type="inkscape:persp3d" inkscape:vp_x="0 : 60 : 1" inkscape:vp_y="0 : 1000 : 0" inkscape:vp_z="150 : 60 : 1" inkscape:persp3d-origin="75 : 40 : 1" id="perspective9235"/>
    <inkscape:perspective sodipodi:type="inkscape:persp3d" inkscape:vp_x="0 : 526.18109 : 1" inkscape:vp_y="0 : 1000 : 0" inkscape:vp_z="744.09448 : 526.18109 : 1" inkscape:persp3d-origin="372.04724 : 350.78739 : 1" id="perspective9233"/>
    <inkscape:perspective id="perspective9231" inkscape:persp3d-origin="0.5 : 0.33333333 : 1" inkscape:vp_z="1 : 0.5 : 1" inkscape:vp_y="0 : 1000 : 0" inkscape:vp_x="0 : 0.5 : 1" sodipodi:type="inkscape:persp3d"/>
    <inkscape:perspective id="perspective9229" inkscape:persp3d-origin="25 : 10 : 1" inkscape:vp_z="50 : 15 : 1" inkscape:vp_y="0 : 1000 : 0" inkscape:vp_x="0 : 15 : 1" sodipodi:type="inkscape:persp3d"/>
    <inkscape:perspective sodipodi:type="inkscape:persp3d" inkscape:vp_x="0 : 32 : 1" inkscape:vp_y="0 : 1000 : 0" inkscape:vp_z="64 : 32 : 1" inkscape:persp3d-origin="32 : 21.333333 : 1" id="perspective9415"/>
    <inkscape:perspective sodipodi:type="inkscape:persp3d" inkscape:vp_x="0 : 50 : 1" inkscape:vp_y="0 : 1000 : 0" inkscape:vp_z="100 : 50 : 1" inkscape:persp3d-origin="50 : 33.333333 : 1" id="perspective9413"/>
    <inkscape:perspective sodipodi:type="inkscape:persp3d" inkscape:vp_x="0 : 60 : 1" inkscape:vp_y="0 : 1000 : 0" inkscape:vp_z="150 : 60 : 1" inkscape:persp3d-origin="75 : 40 : 1" id="perspective9411"/>
    <inkscape:perspective sodipodi:type="inkscape:persp3d" inkscape:vp_x="0 : 526.18109 : 1" inkscape:vp_y="0 : 1000 : 0" inkscape:vp_z="744.09448 : 526.18109 : 1" inkscape:persp3d-origin="372.04724 : 350.78739 : 1" id="perspective9409"/>
    <inkscape:perspective id="perspective9407" inkscape:persp3d-origin="0.5 : 0.33333333 : 1" inkscape:vp_z="1 : 0.5 : 1" inkscape:vp_y="0 : 1000 : 0" inkscape:vp_x="0 : 0.5 : 1" sodipodi:type="inkscape:persp3d"/>
    <inkscape:perspective id="perspective9405" inkscape:persp3d-origin="25 : 10 : 1" inkscape:vp_z="50 : 15 : 1" inkscape:vp_y="0 : 1000 : 0" inkscape:vp_x="0 : 15 : 1" sodipodi:type="inkscape:persp3d"/>
    <inkscape:perspective sodipodi:type="inkscape:persp3d" inkscape:vp_x="0 : 25 : 1" inkscape:vp_y="0 : 1000 : 0" inkscape:vp_z="50 : 25 : 1" inkscape:persp3d-origin="25 : 16.666667 : 1" id="perspective9577"/>
    <inkscape:perspective sodipodi:type="inkscape:persp3d" inkscape:vp_x="0 : 32 : 1" inkscape:vp_y="0 : 1000 : 0" inkscape:vp_z="64 : 32 : 1" inkscape:persp3d-origin="32 : 21.333333 : 1" id="perspective9575"/>
    <inkscape:perspective sodipodi:type="inkscape:persp3d" inkscape:vp_x="0 : 50 : 1" inkscape:vp_y="0 : 1000 : 0" inkscape:vp_z="100 : 50 : 1" inkscape:persp3d-origin="50 : 33.333333 : 1" id="perspective9573"/>
    <inkscape:perspective sodipodi:type="inkscape:persp3d" inkscape:vp_x="0 : 60 : 1" inkscape:vp_y="0 : 1000 : 0" inkscape:vp_z="150 : 60 : 1" inkscape:persp3d-origin="75 : 40 : 1" id="perspective9571"/>
    <inkscape:perspective sodipodi:type="inkscape:persp3d" inkscape:vp_x="0 : 526.18109 : 1" inkscape:vp_y="0 : 1000 : 0" inkscape:vp_z="744.09448 : 526.18109 : 1" inkscape:persp3d-origin="372.04724 : 350.78739 : 1" id="perspective9569"/>
    <inkscape:perspective id="perspective9567" inkscape:persp3d-origin="0.5 : 0.33333333 : 1" inkscape:vp_z="1 : 0.5 : 1" inkscape:vp_y="0 : 1000 : 0" inkscape:vp_x="0 : 0.5 : 1" sodipodi:type="inkscape:persp3d"/>
    <inkscape:perspective id="perspective9565" inkscape:persp3d-origin="25 : 10 : 1" inkscape:vp_z="50 : 15 : 1" inkscape:vp_y="0 : 1000 : 0" inkscape:vp_x="0 : 15 : 1" sodipodi:type="inkscape:persp3d"/>
    <inkscape:perspective id="perspective12439" inkscape:persp3d-origin="372.04724 : 350.78739 : 1" inkscape:vp_z="744.09448 : 526.18109 : 1" inkscape:vp_y="0 : 1000 : 0" inkscape:vp_x="0 : 526.18109 : 1" sodipodi:type="inkscape:persp3d"/>
    <inkscape:perspective id="perspective12849" inkscape:persp3d-origin="372.04724 : 350.78739 : 1" inkscape:vp_z="744.09448 : 526.18109 : 1" inkscape:vp_y="0 : 1000 : 0" inkscape:vp_x="0 : 526.18109 : 1" sodipodi:type="inkscape:persp3d"/>
  </defs>
  <sodipodi:namedview id="base" pagecolor="#ffffff" bordercolor="#666666" borderopacity="1.0" gridtolerance="13" guidetolerance="10000" objecttolerance="10" inkscape:pageopacity="0.0" inkscape:pageshadow="2" inkscape:zoom="1.4142136" inkscape:cx="-41.54732" inkscape:cy="40.909846" inkscape:document-units="px" inkscape:current-layer="layer1" showgrid="false" inkscape:window-width="1399" inkscape:window-height="874" inkscape:window-x="33" inkscape:window-y="0" inkscape:snap-bbox="true" showguides="true" inkscape:guide-bbox="true">
    <inkscape:grid type="xygrid" id="grid6453" visible="true" enabled="true" spacingx="5px" spacingy="5px"/>
  </sodipodi:namedview>
  <metadata id="metadata6364">
    <rdf:RDF>
      <cc:Work rdf:about="">
        <dc:format>image/svg+xml</dc:format>
        <dc:type rdf:resource="http://purl.org/dc/dcmitype/StillImage"/>
      </cc:Work>
    </rdf:RDF>
  </metadata>
  <g inkscape:label="Layer 1" inkscape:groupmode="layer" id="layer1" transform="translate(-17.75, -8.5)">
    <text xml:space="preserve" style="font-size: 18px; font-style: italic; font-variant: normal; font-weight: normal; font-stretch: normal; line-height: 100%; text-anchor: end; fill: rgb(0, 0, 0); fill-opacity: 1; stroke: none; stroke-width: 1px; stroke-linecap: butt; stroke-linejoin: miter; stroke-opacity: 1; font-family: DejaVu Serif;" x="10.8125" y="51.5312" id="text6874" sodipodi:linespacing="100%"><tspan sodipodi:role="line" id="tspan6876" x="10.8125" y="51.5312"/></text>
    <path sodipodi:type="arc" style="overflow: visible; marker: none; fill: rgb(254, 218, 164); fill-opacity: 1; stroke: rgb(0, 0, 0); stroke-width: 2; stroke-linecap: round; stroke-linejoin: bevel; stroke-miterlimit: 4; stroke-dasharray: none; stroke-opacity: 1; visibility: visible; display: inline;" id="path12855" sodipodi:cx="42.5" sodipodi:cy="42.5" sodipodi:rx="32.5" sodipodi:ry="32.5" d="M 75,42.5 A 32.5,32.5 0 1 1 10,42.5 A 32.5,32.5 0 1 1 75,42.5 z" transform="translate(12.75, 1.25)"/>
    <path transform="matrix(0.89566, 0, 0, 0.89566, 17.1844, 5.68443)" d="M 75,42.5 A 32.5,32.5 0 1 1 10,42.5 A 32.5,32.5 0 1 1 75,42.5 z" sodipodi:ry="32.5" sodipodi:rx="32.5" sodipodi:cy="42.5" sodipodi:cx="42.5" id="path12857" style="overflow: visible; marker: none; fill: none; fill-opacity: 1; stroke: rgb(204, 0, 0); stroke-width: 2.23299; stroke-linecap: round; stroke-linejoin: bevel; stroke-miterlimit: 4; stroke-dasharray: none; stroke-opacity: 1; visibility: visible; display: inline;" sodipodi:type="arc"/>
    <path sodipodi:type="arc" style="overflow: visible; marker: none; fill: rgb(254, 218, 164); fill-opacity: 1; stroke: rgb(0, 0, 0); stroke-width: 2; stroke-linecap: round; stroke-linejoin: bevel; stroke-miterlimit: 4; stroke-dasharray: none; stroke-opacity: 1; visibility: visible; display: inline;" id="path12863" sodipodi:cx="42.5" sodipodi:cy="42.5" sodipodi:rx="32.5" sodipodi:ry="32.5" d="M 75,42.5 A 32.5,32.5 0 1 1 10,42.5 A 32.5,32.5 0 1 1 75,42.5 z" transform="translate(88.75, 1.25)"/>
    <path transform="matrix(0.89566, 0, 0, 0.89566, 93.1844, 5.68443)" d="M 75,42.5 A 32.5,32.5 0 1 1 10,42.5 A 32.5,32.5 0 1 1 75,42.5 z" sodipodi:ry="32.5" sodipodi:rx="32.5" sodipodi:cy="42.5" sodipodi:cx="42.5" id="path12865" style="overflow: visible; marker: none; fill: none; fill-opacity: 1; stroke: rgb(0, 0, 0); stroke-width: 2.23299; stroke-linecap: round; stroke-linejoin: bevel; stroke-miterlimit: 4; stroke-dasharray: none; stroke-opacity: 1; visibility: visible; display: inline;" sodipodi:type="arc"/>
    <path style="font-size: 40px; font-style: italic; font-variant: normal; font-weight: normal; font-stretch: normal; line-height: 100%; text-anchor: end; fill: rgb(204, 0, 0); fill-opacity: 1; stroke: rgb(204, 0, 0); stroke-width: 1px; stroke-linecap: butt; stroke-linejoin: miter; stroke-opacity: 1; font-family: DejaVu Serif;" d="M 58.359375,47.15625 L 68.359375,47.15625 L 68.359375,56.0625 L 58.359375,56.0625 L 58.359375,47.15625 z M 56.171875,60.75 L 58.359375,59.8125 L 58.359375,56.84375 L 68.359375,56.84375 L 68.359375,60.4375 L 70.703125,59.34375 C 70.598923,56.84375 70.54684,47.31251 70.546875,30.75 L 71.953125,29.65625 L 69.765625,27.46875 L 68.046875,29.1875 L 58.515625,29.1875 L 56.171875,27.625 C 56.27602,30.020861 56.328104,35.437522 56.328125,43.875 C 56.328104,52.312505 56.27602,57.937499 56.171875,60.75 L 56.171875,60.75 z M 58.359375,29.96875 L 68.359375,29.96875 L 68.359375,37.9375 L 58.359375,37.9375 L 58.359375,29.96875 z M 58.359375,38.71875 L 68.359375,38.71875 L 68.359375,46.375 L 58.359375,46.375 L 58.359375,38.71875 z M 45.546875,35.125 L 37.734375,35.125 L 38.984375,36.375 C 39.92187,36.062521 40.963536,35.906271 42.109375,35.90625 L 45.234375,35.90625 C 44.192699,41.1146 41.380202,46.895844 36.796875,53.25 L 37.265625,53.71875 C 40.703119,50.48959 43.463533,46.687511 45.546875,42.3125 C 45.546865,48.250009 45.494781,54.44792 45.390625,60.90625 L 47.734375,59.8125 C 47.630196,57.208333 47.578113,50.697923 47.578125,40.28125 C 49.036444,41.218766 50.052068,42.54689 50.625,44.265625 C 51.197901,45.984386 51.8229,46.244803 52.5,45.046875 C 53.177065,43.848972 53.072899,42.859389 52.1875,42.078125 C 51.302067,41.296891 49.76561,40.4896 47.578125,39.65625 L 47.578125,35.90625 L 55.546875,35.90625 L 52.890625,33.40625 L 51.015625,35.125 L 47.578125,35.125 L 47.578125,27.46875 L 48.984375,26.375 L 45.390625,24.96875 C 45.494781,27.572946 45.546865,30.95836 45.546875,35.125 L 45.546875,35.125 z" id="text12867"/>
    <path style="font-size: 40px; font-style: italic; font-variant: normal; font-weight: normal; font-stretch: normal; line-height: 100%; text-anchor: end; fill: rgb(0, 0, 0); fill-opacity: 1; stroke: rgb(0, 0, 0); stroke-width: 1px; stroke-linecap: butt; stroke-linejoin: miter; stroke-opacity: 1; font-family: DejaVu Serif;" d="M 137.5625,46.5 C 137.97914,48.791675 138.99476,50.822923 140.60938,52.59375 C 142.22393,54.364586 144.43747,55.822918 147.25,56.96875 C 147.56246,55.927085 148.65621,55.302085 150.53125,55.09375 L 150.53125,54.625 C 147.71871,54.312503 145.19268,53.47917 142.95312,52.125 C 140.71351,50.77084 139.12497,48.791675 138.1875,46.1875 C 141.93747,44.520846 144.38538,43.687514 145.53125,43.6875 L 143.34375,41.03125 C 142.82289,41.656266 141.78122,42.51564 140.21875,43.609375 C 138.65622,44.703138 136.98956,45.666678 135.21875,46.5 C 133.86456,45.041679 131.93748,43.739597 129.4375,42.59375 C 130.47915,41.447933 131.2604,40.406267 131.78125,39.46875 L 142.09375,39.46875 L 142.09375,40.5625 L 144.28125,39.78125 C 144.17705,38.322936 144.12497,36.760437 144.125,35.09375 L 145.53125,34 L 143.03125,31.96875 L 141.625,33.53125 L 133.5,33.53125 C 135.47914,31.760442 136.98956,30.61461 138.03125,30.09375 C 139.07289,29.572944 139.95831,29.260445 140.6875,29.15625 L 137.875,26.5 L 136.15625,28.375 L 126.9375,28.375 C 127.97915,27.333363 128.91665,26.760447 129.75,26.65625 L 126.625,24.46875 C 125.99999,25.927115 124.51561,27.802113 122.17188,30.09375 C 119.82812,32.385442 117.04166,34.468773 113.8125,36.34375 L 113.96875,36.96875 C 116.36458,36.239604 118.49999,35.250022 120.375,34 C 120.37499,36.81252 120.32291,39.364601 120.21875,41.65625 L 122.40625,40.875 L 122.40625,39.46875 L 129.28125,39.46875 C 126.98957,43.322931 122.30207,46.552094 115.21875,49.15625 L 115.375,49.625 C 120.47916,48.479175 125.0104,46.343761 128.96875,43.21875 C 129.59373,43.531264 130.11457,43.895847 130.53125,44.3125 C 127.8229,47.645843 123.34374,50.510423 117.09375,52.90625 L 117.25,53.375 C 123.08332,52.020839 127.97915,49.468758 131.9375,45.71875 C 132.35415,46.031261 132.8229,46.552094 133.34375,47.28125 C 129.3854,52.281255 122.97916,55.979168 114.125,58.375 L 114.125,59 C 122.45832,57.645833 129.22915,54.364586 134.4375,49.15625 C 134.85414,50.30209 135.06248,51.500006 135.0625,52.75 C 135.06248,54.000003 134.8281,55.067711 134.35938,55.953125 C 133.8906,56.838542 133.31769,57.4375 132.64062,57.75 C 131.96352,58.062499 129.85415,58.010416 126.3125,57.59375 L 126.3125,58.21875 C 129.22915,58.947915 130.79165,59.989581 131,61.34375 C 133.08331,60.822913 134.64581,59.937497 135.6875,58.6875 C 136.72914,57.4375 137.35414,55.901043 137.5625,54.078125 C 137.77081,52.255213 137.14581,49.989591 135.6875,47.28125 C 136.10414,47.072927 136.72914,46.81251 137.5625,46.5 L 137.5625,46.5 z M 132.40625,33.53125 L 122.71875,33.53125 L 121.9375,32.75 C 123.29166,31.604192 124.6979,30.406277 126.15625,29.15625 L 135.84375,29.15625 L 132.40625,33.53125 z M 122.40625,34.3125 L 131.15625,34.3125 C 130.84373,35.979188 130.37498,37.43752 129.75,38.6875 L 122.40625,38.6875 L 122.40625,34.3125 z M 133.5,34.3125 L 142.09375,34.3125 L 142.09375,38.6875 L 132.09375,38.6875 C 132.71873,37.229187 133.18748,35.770855 133.5,34.3125 L 133.5,34.3125 z" id="text12859"/>
  </g>
</svg>