<?xml version="1.0" encoding="UTF-8" standalone="no"?>
<!-- Created with Inkscape (http://www.inkscape.org/) -->
<svg xmlns:dc="http://purl.org/dc/elements/1.1/" xmlns:cc="http://creativecommons.org/ns#" xmlns:rdf="http://www.w3.org/1999/02/22-rdf-syntax-ns#" xmlns:svg="http://www.w3.org/2000/svg" xmlns="http://www.w3.org/2000/svg" xmlns:sodipodi="http://sodipodi.sourceforge.net/DTD/sodipodi-0.dtd" xmlns:inkscape="http://www.inkscape.org/namespaces/inkscape" width="150" height="70" id="svg6359" sodipodi:version="0.32" inkscape:version="0.46" version="1.0" sodipodi:docname="Xiangqi General (Trad).svg" inkscape:output_extension="org.inkscape.output.svg.inkscape">
  <defs id="defs6361">
    <inkscape:perspective sodipodi:type="inkscape:persp3d" inkscape:vp_x="0 : 526.18109 : 1" inkscape:vp_y="0 : 1000 : 0" inkscape:vp_z="744.09448 : 526.18109 : 1" inkscape:persp3d-origin="372.04724 : 350.78739 : 1" id="perspective6367"/>
    <inkscape:perspective sodipodi:type="inkscape:persp3d" inkscape:vp_x="0 : 32 : 1" inkscape:vp_y="0 : 1000 : 0" inkscape:vp_z="64 : 32 : 1" inkscape:persp3d-origin="32 : 21.333333 : 1" id="perspective5533"/>
    <inkscape:perspective sodipodi:type="inkscape:persp3d" inkscape:vp_x="0 : 50 : 1" inkscape:vp_y="0 : 1000 : 0" inkscape:vp_z="100 : 50 : 1" inkscape:persp3d-origin="50 : 33.333333 : 1" id="perspective3275"/>
    <inkscape:perspective sodipodi:type="inkscape:persp3d" inkscape:vp_x="0 : 60 : 1" inkscape:vp_y="0 : 1000 : 0" inkscape:vp_z="150 : 60 : 1" inkscape:persp3d-origin="75 : 40 : 1" id="perspective2777"/>
    <inkscape:perspective sodipodi:type="inkscape:persp3d" inkscape:vp_x="0 : 526.18109 : 1" inkscape:vp_y="0 : 1000 : 0" inkscape:vp_z="744.09448 : 526.18109 : 1" inkscape:persp3d-origin="372.04724 : 350.78739 : 1" id="perspective2819"/>
    <inkscape:perspective id="perspective2806" inkscape:persp3d-origin="0.5 : 0.33333333 : 1" inkscape:vp_z="1 : 0.5 : 1" inkscape:vp_y="0 : 1000 : 0" inkscape:vp_x="0 : 0.5 : 1" sodipodi:type="inkscape:persp3d"/>
    <inkscape:perspective id="perspective2714" inkscape:persp3d-origin="25 : 10 : 1" inkscape:vp_z="50 : 15 : 1" inkscape:vp_y="0 : 1000 : 0" inkscape:vp_x="0 : 15 : 1" sodipodi:type="inkscape:persp3d"/>
    <inkscape:perspective sodipodi:type="inkscape:persp3d" inkscape:vp_x="0 : 32 : 1" inkscape:vp_y="0 : 1000 : 0" inkscape:vp_z="64 : 32 : 1" inkscape:persp3d-origin="32 : 21.333333 : 1" id="perspective6738"/>
    <inkscape:perspective sodipodi:type="inkscape:persp3d" inkscape:vp_x="0 : 50 : 1" inkscape:vp_y="0 : 1000 : 0" inkscape:vp_z="100 : 50 : 1" inkscape:persp3d-origin="50 : 33.333333 : 1" id="perspective6736"/>
    <inkscape:perspective sodipodi:type="inkscape:persp3d" inkscape:vp_x="0 : 60 : 1" inkscape:vp_y="0 : 1000 : 0" inkscape:vp_z="150 : 60 : 1" inkscape:persp3d-origin="75 : 40 : 1" id="perspective6734"/>
    <inkscape:perspective sodipodi:type="inkscape:persp3d" inkscape:vp_x="0 : 526.18109 : 1" inkscape:vp_y="0 : 1000 : 0" inkscape:vp_z="744.09448 : 526.18109 : 1" inkscape:persp3d-origin="372.04724 : 350.78739 : 1" id="perspective6732"/>
    <inkscape:perspective id="perspective6730" inkscape:persp3d-origin="0.5 : 0.33333333 : 1" inkscape:vp_z="1 : 0.5 : 1" inkscape:vp_y="0 : 1000 : 0" inkscape:vp_x="0 : 0.5 : 1" sodipodi:type="inkscape:persp3d"/>
    <inkscape:perspective id="perspective6728" inkscape:persp3d-origin="25 : 10 : 1" inkscape:vp_z="50 : 15 : 1" inkscape:vp_y="0 : 1000 : 0" inkscape:vp_x="0 : 15 : 1" sodipodi:type="inkscape:persp3d"/>
    <inkscape:perspective sodipodi:type="inkscape:persp3d" inkscape:vp_x="0 : 25 : 1" inkscape:vp_y="0 : 1000 : 0" inkscape:vp_z="50 : 25 : 1" inkscape:persp3d-origin="25 : 16.666667 : 1" id="perspective2557"/>
    <inkscape:perspective sodipodi:type="inkscape:persp3d" inkscape:vp_x="0 : 32 : 1" inkscape:vp_y="0 : 1000 : 0" inkscape:vp_z="64 : 32 : 1" inkscape:persp3d-origin="32 : 21.333333 : 1" id="perspective6846"/>
    <inkscape:perspective sodipodi:type="inkscape:persp3d" inkscape:vp_x="0 : 50 : 1" inkscape:vp_y="0 : 1000 : 0" inkscape:vp_z="100 : 50 : 1" inkscape:persp3d-origin="50 : 33.333333 : 1" id="perspective6844"/>
    <inkscape:perspective sodipodi:type="inkscape:persp3d" inkscape:vp_x="0 : 60 : 1" inkscape:vp_y="0 : 1000 : 0" inkscape:vp_z="150 : 60 : 1" inkscape:persp3d-origin="75 : 40 : 1" id="perspective6842"/>
    <inkscape:perspective sodipodi:type="inkscape:persp3d" inkscape:vp_x="0 : 526.18109 : 1" inkscape:vp_y="0 : 1000 : 0" inkscape:vp_z="744.09448 : 526.18109 : 1" inkscape:persp3d-origin="372.04724 : 350.78739 : 1" id="perspective6840"/>
    <inkscape:perspective id="perspective6838" inkscape:persp3d-origin="0.5 : 0.33333333 : 1" inkscape:vp_z="1 : 0.5 : 1" inkscape:vp_y="0 : 1000 : 0" inkscape:vp_x="0 : 0.5 : 1" sodipodi:type="inkscape:persp3d"/>
    <inkscape:perspective id="perspective6836" inkscape:persp3d-origin="25 : 10 : 1" inkscape:vp_z="50 : 15 : 1" inkscape:vp_y="0 : 1000 : 0" inkscape:vp_x="0 : 15 : 1" sodipodi:type="inkscape:persp3d"/>
    <inkscape:perspective sodipodi:type="inkscape:persp3d" inkscape:vp_x="0 : 32 : 1" inkscape:vp_y="0 : 1000 : 0" inkscape:vp_z="64 : 32 : 1" inkscape:persp3d-origin="32 : 21.333333 : 1" id="perspective9092"/>
    <inkscape:perspective sodipodi:type="inkscape:persp3d" inkscape:vp_x="0 : 50 : 1" inkscape:vp_y="0 : 1000 : 0" inkscape:vp_z="100 : 50 : 1" inkscape:persp3d-origin="50 : 33.333333 : 1" id="perspective9090"/>
    <inkscape:perspective sodipodi:type="inkscape:persp3d" inkscape:vp_x="0 : 60 : 1" inkscape:vp_y="0 : 1000 : 0" inkscape:vp_z="150 : 60 : 1" inkscape:persp3d-origin="75 : 40 : 1" id="perspective9088"/>
    <inkscape:perspective sodipodi:type="inkscape:persp3d" inkscape:vp_x="0 : 526.18109 : 1" inkscape:vp_y="0 : 1000 : 0" inkscape:vp_z="744.09448 : 526.18109 : 1" inkscape:persp3d-origin="372.04724 : 350.78739 : 1" id="perspective9086"/>
    <inkscape:perspective id="perspective9084" inkscape:persp3d-origin="0.5 : 0.33333333 : 1" inkscape:vp_z="1 : 0.5 : 1" inkscape:vp_y="0 : 1000 : 0" inkscape:vp_x="0 : 0.5 : 1" sodipodi:type="inkscape:persp3d"/>
    <inkscape:perspective id="perspective9082" inkscape:persp3d-origin="25 : 10 : 1" inkscape:vp_z="50 : 15 : 1" inkscape:vp_y="0 : 1000 : 0" inkscape:vp_x="0 : 15 : 1" sodipodi:type="inkscape:persp3d"/>
    <inkscape:perspective sodipodi:type="inkscape:persp3d" inkscape:vp_x="0 : 25 : 1" inkscape:vp_y="0 : 1000 : 0" inkscape:vp_z="50 : 25 : 1" inkscape:persp3d-origin="25 : 16.666667 : 1" id="perspective9241"/>
    <inkscape:perspective sodipodi:type="inkscape:persp3d" inkscape:vp_x="0 : 32 : 1" inkscape:vp_y="0 : 1000 : 0" inkscape:vp_z="64 : 32 : 1" inkscape:persp3d-origin="32 : 21.333333 : 1" id="perspective9239"/>
    <inkscape:perspective sodipodi:type="inkscape:persp3d" inkscape:vp_x="0 : 50 : 1" inkscape:vp_y="0 : 1000 : 0" inkscape:vp_z="100 : 50 : 1" inkscape:persp3d-origin="50 : 33.333333 : 1" id="perspective9237"/>
    <inkscape:perspective sodipodi:type="inkscape:persp3d" inkscape:vp_x="0 : 60 : 1" inkscape:vp_y="0 : 1000 : 0" inkscape:vp_z="150 : 60 : 1" inkscape:persp3d-origin="75 : 40 : 1" id="perspective9235"/>
    <inkscape:perspective sodipodi:type="inkscape:persp3d" inkscape:vp_x="0 : 526.18109 : 1" inkscape:vp_y="0 : 1000 : 0" inkscape:vp_z="744.09448 : 526.18109 : 1" inkscape:persp3d-origin="372.04724 : 350.78739 : 1" id="perspective9233"/>
    <inkscape:perspective id="perspective9231" inkscape:persp3d-origin="0.5 : 0.33333333 : 1" inkscape:vp_z="1 : 0.5 : 1" inkscape:vp_y="0 : 1000 : 0" inkscape:vp_x="0 : 0.5 : 1" sodipodi:type="inkscape:persp3d"/>
    <inkscape:perspective id="perspective9229" inkscape:persp3d-origin="25 : 10 : 1" inkscape:vp_z="50 : 15 : 1" inkscape:vp_y="0 : 1000 : 0" inkscape:vp_x="0 : 15 : 1" sodipodi:type="inkscape:persp3d"/>
    <inkscape:perspective sodipodi:type="inkscape:persp3d" inkscape:vp_x="0 : 32 : 1" inkscape:vp_y="0 : 1000 : 0" inkscape:vp_z="64 : 32 : 1" inkscape:persp3d-origin="32 : 21.333333 : 1" id="perspective9415"/>
    <inkscape:perspective sodipodi:type="inkscape:persp3d" inkscape:vp_x="0 : 50 : 1" inkscape:vp_y="0 : 1000 : 0" inkscape:vp_z="100 : 50 : 1" inkscape:persp3d-origin="50 : 33.333333 : 1" id="perspective9413"/>
    <inkscape:perspective sodipodi:type="inkscape:persp3d" inkscape:vp_x="0 : 60 : 1" inkscape:vp_y="0 : 1000 : 0" inkscape:vp_z="150 : 60 : 1" inkscape:persp3d-origin="75 : 40 : 1" id="perspective9411"/>
    <inkscape:perspective sodipodi:type="inkscape:persp3d" inkscape:vp_x="0 : 526.18109 : 1" inkscape:vp_y="0 : 1000 : 0" inkscape:vp_z="744.09448 : 526.18109 : 1" inkscape:persp3d-origin="372.04724 : 350.78739 : 1" id="perspective9409"/>
    <inkscape:perspective id="perspective9407" inkscape:persp3d-origin="0.5 : 0.33333333 : 1" inkscape:vp_z="1 : 0.5 : 1" inkscape:vp_y="0 : 1000 : 0" inkscape:vp_x="0 : 0.5 : 1" sodipodi:type="inkscape:persp3d"/>
    <inkscape:perspective id="perspective9405" inkscape:persp3d-origin="25 : 10 : 1" inkscape:vp_z="50 : 15 : 1" inkscape:vp_y="0 : 1000 : 0" inkscape:vp_x="0 : 15 : 1" sodipodi:type="inkscape:persp3d"/>
    <inkscape:perspective sodipodi:type="inkscape:persp3d" inkscape:vp_x="0 : 25 : 1" inkscape:vp_y="0 : 1000 : 0" inkscape:vp_z="50 : 25 : 1" inkscape:persp3d-origin="25 : 16.666667 : 1" id="perspective9577"/>
    <inkscape:perspective sodipodi:type="inkscape:persp3d" inkscape:vp_x="0 : 32 : 1" inkscape:vp_y="0 : 1000 : 0" inkscape:vp_z="64 : 32 : 1" inkscape:persp3d-origin="32 : 21.333333 : 1" id="perspective9575"/>
    <inkscape:perspective sodipodi:type="inkscape:persp3d" inkscape:vp_x="0 : 50 : 1" inkscape:vp_y="0 : 1000 : 0" inkscape:vp_z="100 : 50 : 1" inkscape:persp3d-origin="50 : 33.333333 : 1" id="perspective9573"/>
    <inkscape:perspective sodipodi:type="inkscape:persp3d" inkscape:vp_x="0 : 60 : 1" inkscape:vp_y="0 : 1000 : 0" inkscape:vp_z="150 : 60 : 1" inkscape:persp3d-origin="75 : 40 : 1" id="perspective9571"/>
    <inkscape:perspective sodipodi:type="inkscape:persp3d" inkscape:vp_x="0 : 526.18109 : 1" inkscape:vp_y="0 : 1000 : 0" inkscape:vp_z="744.09448 : 526.18109 : 1" inkscape:persp3d-origin="372.04724 : 350.78739 : 1" id="perspective9569"/>
    <inkscape:perspective id="perspective9567" inkscape:persp3d-origin="0.5 : 0.33333333 : 1" inkscape:vp_z="1 : 0.5 : 1" inkscape:vp_y="0 : 1000 : 0" inkscape:vp_x="0 : 0.5 : 1" sodipodi:type="inkscape:persp3d"/>
    <inkscape:perspective id="perspective9565" inkscape:persp3d-origin="25 : 10 : 1" inkscape:vp_z="50 : 15 : 1" inkscape:vp_y="0 : 1000 : 0" inkscape:vp_x="0 : 15 : 1" sodipodi:type="inkscape:persp3d"/>
    <inkscape:perspective id="perspective12439" inkscape:persp3d-origin="372.04724 : 350.78739 : 1" inkscape:vp_z="744.09448 : 526.18109 : 1" inkscape:vp_y="0 : 1000 : 0" inkscape:vp_x="0 : 526.18109 : 1" sodipodi:type="inkscape:persp3d"/>
    <inkscape:perspective id="perspective12849" inkscape:persp3d-origin="372.04724 : 350.78739 : 1" inkscape:vp_z="744.09448 : 526.18109 : 1" inkscape:vp_y="0 : 1000 : 0" inkscape:vp_x="0 : 526.18109 : 1" sodipodi:type="inkscape:persp3d"/>
  </defs>
  <sodipodi:namedview id="base" pagecolor="#ffffff" bordercolor="#666666" borderopacity="1.0" gridtolerance="13" guidetolerance="10000" objecttolerance="10" inkscape:pageopacity="0.0" inkscape:pageshadow="2" inkscape:zoom="2" inkscape:cx="89.243145" inkscape:cy="32.066194" inkscape:document-units="px" inkscape:current-layer="layer1" showgrid="false" inkscape:window-width="1399" inkscape:window-height="874" inkscape:window-x="33" inkscape:window-y="0" inkscape:snap-bbox="true" showguides="true" inkscape:guide-bbox="true">
    <inkscape:grid type="xygrid" id="grid6453" visible="true" enabled="true" spacingx="5px" spacingy="5px"/>
  </sodipodi:namedview>
  <metadata id="metadata6364">
    <rdf:RDF>
      <cc:Work rdf:about="">
        <dc:format>image/svg+xml</dc:format>
        <dc:type rdf:resource="http://purl.org/dc/dcmitype/StillImage"/>
      </cc:Work>
    </rdf:RDF>
  </metadata>
  <g inkscape:label="Layer 1" inkscape:groupmode="layer" id="layer1" transform="translate(-17.75, -8.5)">
    <text xml:space="preserve" style="font-size: 18px; font-style: italic; font-variant: normal; font-weight: normal; font-stretch: normal; line-height: 100%; text-anchor: end; fill: rgb(0, 0, 0); fill-opacity: 1; stroke: none; stroke-width: 1px; stroke-linecap: butt; stroke-linejoin: miter; stroke-opacity: 1; font-family: DejaVu Serif;" x="10.8125" y="51.5312" id="text6874" sodipodi:linespacing="100%"><tspan sodipodi:role="line" id="tspan6876" x="10.8125" y="51.5312"/></text>
    <path sodipodi:type="arc" style="overflow: visible; marker: none; fill: rgb(254, 218, 164); fill-opacity: 1; stroke: rgb(0, 0, 0); stroke-width: 2; stroke-linecap: round; stroke-linejoin: bevel; stroke-miterlimit: 4; stroke-dasharray: none; stroke-opacity: 1; visibility: visible; display: inline;" id="path12855" sodipodi:cx="42.5" sodipodi:cy="42.5" sodipodi:rx="32.5" sodipodi:ry="32.5" d="M 75,42.5 A 32.5,32.5 0 1 1 10,42.5 A 32.5,32.5 0 1 1 75,42.5 z" transform="translate(12.75, 1.25)"/>
    <path transform="matrix(0.89566, 0, 0, 0.89566, 17.1844, 5.68443)" d="M 75,42.5 A 32.5,32.5 0 1 1 10,42.5 A 32.5,32.5 0 1 1 75,42.5 z" sodipodi:ry="32.5" sodipodi:rx="32.5" sodipodi:cy="42.5" sodipodi:cx="42.5" id="path12857" style="overflow: visible; marker: none; fill: none; fill-opacity: 1; stroke: rgb(204, 0, 0); stroke-width: 2.23299; stroke-linecap: round; stroke-linejoin: bevel; stroke-miterlimit: 4; stroke-dasharray: none; stroke-opacity: 1; visibility: visible; display: inline;" sodipodi:type="arc"/>
    <path sodipodi:type="arc" style="overflow: visible; marker: none; fill: rgb(254, 218, 164); fill-opacity: 1; stroke: rgb(0, 0, 0); stroke-width: 2; stroke-linecap: round; stroke-linejoin: bevel; stroke-miterlimit: 4; stroke-dasharray: none; stroke-opacity: 1; visibility: visible; display: inline;" id="path12863" sodipodi:cx="42.5" sodipodi:cy="42.5" sodipodi:rx="32.5" sodipodi:ry="32.5" d="M 75,42.5 A 32.5,32.5 0 1 1 10,42.5 A 32.5,32.5 0 1 1 75,42.5 z" transform="translate(88.75, 1.25)"/>
    <path transform="matrix(0.89566, 0, 0, 0.89566, 93.1844, 5.68443)" d="M 75,42.5 A 32.5,32.5 0 1 1 10,42.5 A 32.5,32.5 0 1 1 75,42.5 z" sodipodi:ry="32.5" sodipodi:rx="32.5" sodipodi:cy="42.5" sodipodi:cx="42.5" id="path12865" style="overflow: visible; marker: none; fill: none; fill-opacity: 1; stroke: rgb(0, 0, 0); stroke-width: 2.23299; stroke-linecap: round; stroke-linejoin: bevel; stroke-miterlimit: 4; stroke-dasharray: none; stroke-opacity: 1; visibility: visible; display: inline;" sodipodi:type="arc"/>
    <path style="font-size: 40px; font-style: italic; font-variant: normal; font-weight: normal; font-stretch: normal; line-height: 100%; text-anchor: end; fill: rgb(204, 0, 0); fill-opacity: 1; stroke: rgb(204, 0, 0); stroke-width: 1px; stroke-linecap: butt; stroke-linejoin: miter; stroke-opacity: 1; font-family: DejaVu Serif;" d="M 64.21875,35.15625 L 70.15625,35.15625 L 70.15625,51.09375 C 70.052049,52.031256 69.531216,52.473964 68.59375,52.421875 C 67.656218,52.369797 66.666635,52.239589 65.625,52.03125 L 65.625,52.65625 C 67.812468,53.385421 69.062466,54.427087 69.375,55.78125 C 71.354131,54.739587 72.29163,53.281255 72.1875,51.40625 L 72.1875,35.78125 L 73.4375,34.84375 L 71.09375,32.8125 L 69.6875,34.375 L 64.21875,34.375 L 64.21875,28.125 L 65.625,26.875 L 62.03125,25.3125 C 62.13539,26.979198 62.187473,30.000028 62.1875,34.375 L 56.71875,34.375 L 54.375,33.125 C 54.479148,35.520856 54.531231,38.984394 54.53125,43.515625 C 54.531231,48.046885 54.479148,51.927089 54.375,55.15625 L 56.5625,53.90625 L 56.5625,35.15625 L 62.1875,35.15625 L 62.1875,54.6875 C 62.187473,56.770835 62.13539,59.270832 62.03125,62.1875 L 64.375,61.09375 C 64.270805,59.218749 64.218721,57.395834 64.21875,55.625 L 64.21875,35.15625 z M 41.25,33.28125 L 49.0625,33.28125 L 49.0625,40.46875 L 41.25,40.46875 L 41.25,33.28125 z M 41.25,47.34375 L 49.6875,47.34375 L 49.6875,56.25 L 41.25,56.25 L 41.25,47.34375 z M 39.0625,60.3125 L 41.25,59.375 L 41.25,57.03125 L 49.6875,57.03125 L 49.6875,59.375 L 51.875,58.4375 C 51.770817,57.187501 51.718734,53.697921 51.71875,47.96875 L 52.65625,47.1875 L 50.78125,45.15625 L 49.375,46.5625 L 41.25,46.5625 L 41.25,41.25 L 49.0625,41.25 L 49.0625,43.125 L 51.25,42.03125 C 51.145818,40.572934 51.093734,37.864603 51.09375,33.90625 L 52.1875,33.125 L 50.15625,31.09375 L 48.75,32.5 L 43.90625,32.5 L 46.40625,28.4375 L 47.8125,27.34375 L 44.53125,25.46875 C 44.531241,27.239614 43.958325,29.583362 42.8125,32.5 L 41.25,32.5 L 39.0625,31.40625 C 39.166663,33.489608 39.218746,38.072937 39.21875,45.15625 C 39.218746,52.239589 39.166663,57.291667 39.0625,60.3125 L 39.0625,60.3125 z" id="text12867"/>
    <path style="font-size: 40px; font-style: italic; font-variant: normal; font-weight: normal; font-stretch: normal; line-height: 100%; text-anchor: end; fill: rgb(0, 0, 0); fill-opacity: 1; stroke: rgb(0, 0, 0); stroke-width: 1px; stroke-linecap: butt; stroke-linejoin: miter; stroke-opacity: 1; font-family: DejaVu Serif;" d="M 124.0625,37.265625 L 118.75,37.265625 L 118.75,30.703125 L 119.6875,29.609375 L 116.5625,28.359375 C 116.66666,29.817736 116.71875,32.682317 116.71875,36.953125 L 115.78125,37.734375 L 117.8125,39.453125 L 118.75,38.046875 L 124.0625,38.046875 L 124.0625,44.609375 L 114.84375,44.609375 L 116.09375,45.859375 C 117.03125,45.546887 117.91666,45.390637 118.75,45.390625 C 118.85416,49.036467 118.64583,51.875006 118.125,53.90625 C 117.60416,55.937502 116.25,58.255208 114.0625,60.859375 L 114.375,61.328125 C 117.39583,58.932291 119.24479,56.666668 119.92188,54.53125 C 120.59895,52.395839 120.93749,49.348967 120.9375,45.390625 L 124.0625,45.390625 C 124.06249,54.348962 124.01041,59.765623 123.90625,61.640625 L 126.25,60.546875 C 126.14582,58.776041 126.09374,57.552084 126.09375,56.875 C 126.09374,56.197918 126.09374,46.69272 126.09375,28.359375 L 127.5,27.109375 L 123.90625,25.546875 C 124.01041,27.421905 124.06249,31.328152 124.0625,37.265625 L 124.0625,37.265625 z M 138.75,28.359375 L 140,27.734375 L 137.03125,25.546875 C 135.78123,28.567738 134.29685,31.067735 132.57812,33.046875 C 130.85936,35.026065 129.06248,36.69273 127.1875,38.046875 L 127.5,38.515625 C 129.27082,37.578145 130.8854,36.510438 132.34375,35.3125 C 133.80206,34.114607 135.26039,32.7344 136.71875,31.171875 L 145.625,31.171875 C 143.6458,34.401065 141.1458,37.265646 138.125,39.765625 C 135.10414,42.265641 131.24998,44.192722 126.5625,45.546875 L 126.71875,46.015625 C 131.1979,45.286471 135.02602,43.828139 138.20312,41.640625 C 141.38018,39.453143 143.77601,37.343771 145.39062,35.3125 C 147.00517,33.281275 148.38538,32.161484 149.53125,31.953125 L 147.03125,28.984375 L 145.46875,30.390625 L 137.1875,30.390625 C 137.70831,29.765653 138.22914,29.08857 138.75,28.359375 L 138.75,28.359375 z M 142.5,46.328125 L 126.875,46.328125 L 128.125,47.578125 C 129.06248,47.265636 130.10415,47.109386 131.25,47.109375 L 142.5,47.109375 L 142.5,56.640625 C 142.49997,57.473959 142.05726,57.916667 141.17188,57.96875 C 140.28643,58.020833 138.28122,57.838542 135.15625,57.421875 L 135.15625,58.203125 C 138.80206,59.036457 140.67706,60.286456 140.78125,61.953125 C 143.38539,61.223955 144.63538,59.661457 144.53125,57.265625 L 144.53125,47.109375 L 150.9375,47.109375 L 148.4375,44.453125 L 146.5625,46.328125 L 144.53125,46.328125 L 144.53125,43.046875 L 145.78125,41.953125 L 142.34375,40.390625 C 142.44789,41.744808 142.49997,43.723973 142.5,46.328125 L 142.5,46.328125 z M 131.25,48.671875 L 130.78125,48.984375 C 131.92706,51.067715 132.63019,52.89063 132.89062,54.453125 C 133.15102,56.015627 133.61977,56.484376 134.29688,55.859375 C 134.97394,55.234378 135.33852,54.557295 135.39062,53.828125 C 135.44269,53.098963 135.18227,52.369797 134.60938,51.640625 C 134.03644,50.911465 132.91665,49.921883 131.25,48.671875 L 131.25,48.671875 z M 135.15625,32.890625 L 134.6875,33.203125 C 136.14581,34.661482 137.08331,35.91148 137.5,36.953125 C 137.91664,37.994812 138.35935,38.28127 138.82812,37.8125 C 139.29685,37.343771 139.53122,36.744813 139.53125,36.015625 C 139.53122,35.286481 139.21872,34.739606 138.59375,34.375 C 137.96872,34.010441 136.82289,33.515649 135.15625,32.890625 L 135.15625,32.890625 z M 131.5625,35.859375 L 131.09375,36.171875 C 132.23956,37.421895 132.99477,38.593769 133.35938,39.6875 C 133.72394,40.781267 134.1406,41.093767 134.60938,40.625 C 135.0781,40.156268 135.33852,39.609393 135.39062,38.984375 C 135.44269,38.359395 135.15623,37.81252 134.53125,37.34375 C 133.90623,36.875021 132.91665,36.38023 131.5625,35.859375 L 131.5625,35.859375 z" id="text12859"/>
  </g>
</svg>